<svg version="1.1" id="Ebene_1" xmlns="http://www.w3.org/2000/svg" xmlns:xlink="http://www.w3.org/1999/xlink" x="0px" y="0px"
	 viewBox="0 0 98.837 22.951" style="enable-background:new 0 0 98.837 22.951;" width="99" height="23" xml:space="preserve">
<style type="text/css">
	.st0{fill:#103366;}
</style>
	<g>
	<path class="st0" d="M5.052,8.345l-0.553-1.86h-2.3l-0.553,1.86H0l2.571-7.859h1.703l2.47,7.859H5.052z M3.687,3.598L3.372,2.21
		C3.326,2.391,3.135,3.203,3,3.722C2.853,4.285,2.751,4.657,2.582,5.176h1.534C4.059,5.007,3.811,4.139,3.687,3.598z"/>
		<path class="st0" d="M11.295,8.503c-0.191-0.136-0.35-0.327-0.451-0.564C10.472,8.3,9.931,8.491,9.322,8.491
		c-0.812,0-1.511-0.383-1.703-0.936c-0.09-0.26-0.124-0.564-0.124-1.15V2.707l1.488-0.282v3.71c0,0.519,0.045,0.789,0.124,0.947
		c0.079,0.157,0.305,0.271,0.53,0.271c0.372,0,0.823-0.271,0.936-0.553V2.74l1.443-0.305v4.409c0,0.384,0.124,0.778,0.35,1.049
		L11.295,8.503z"/>
		<path class="st0" d="M15.362,8.48c-0.767,0-1.376-0.339-1.556-0.846c-0.09-0.248-0.102-0.361-0.102-0.892V3.608h-0.575V2.571h0.575
		c0-0.563,0-0.936,0.056-1.364l1.534-0.384c-0.056,0.53-0.09,1.162-0.09,1.748h1.354l-0.383,1.037h-0.97v2.898
		c0,0.732,0.136,0.925,0.654,0.925c0.135,0,0.271-0.034,0.541-0.113l0.192,0.902C16.151,8.401,15.757,8.48,15.362,8.48z"/>
		<path class="st0" d="M21.618,7.668c-0.439,0.496-1.015,0.801-1.906,0.801c-1.567,0-2.593-1.173-2.593-2.988
		s1.037-3.021,2.593-3.021c0.823,0,1.466,0.281,1.962,0.868C22.137,3.868,22.34,4.5,22.34,5.436
		C22.34,6.428,22.114,7.104,21.618,7.668z M20.389,3.879c-0.146-0.191-0.383-0.304-0.654-0.304c-0.361,0-0.654,0.226-0.778,0.586
		c-0.102,0.305-0.158,0.711-0.158,1.285c0,0.666,0.067,1.162,0.191,1.455c0.135,0.315,0.474,0.474,0.767,0.474
		c0.654,0,0.936-0.586,0.936-1.951C20.693,4.646,20.592,4.139,20.389,3.879z"/>
		<path class="st0" d="M29.531,8.345V4.533c0-0.688-0.079-0.823-0.474-0.823c-0.282,0-0.677,0.192-1.004,0.485v4.149h-1.432V4.59
		c0-0.722-0.102-0.891-0.519-0.891c-0.282,0-0.666,0.146-0.993,0.439v4.206h-1.477V4.319c0-0.835-0.056-1.195-0.214-1.478
		l1.365-0.372c0.101,0.158,0.146,0.293,0.203,0.587c0.395-0.384,0.88-0.587,1.41-0.587c0.474,0,0.868,0.158,1.173,0.474
		c0.079,0.079,0.158,0.181,0.226,0.282c0.53-0.542,1.003-0.756,1.635-0.756c0.45,0,0.879,0.136,1.139,0.361
		c0.327,0.281,0.429,0.62,0.429,1.409v4.104H29.531z"/>
		<path class="st0" d="M36.787,7.668c-0.439,0.496-1.015,0.801-1.905,0.801c-1.567,0-2.594-1.173-2.594-2.988
		s1.037-3.021,2.594-3.021c0.823,0,1.466,0.281,1.962,0.868c0.462,0.541,0.665,1.173,0.665,2.108
		C37.509,6.428,37.283,7.104,36.787,7.668z M35.558,3.879c-0.146-0.191-0.383-0.304-0.653-0.304c-0.361,0-0.654,0.226-0.778,0.586
		c-0.102,0.305-0.158,0.711-0.158,1.285c0,0.666,0.068,1.162,0.192,1.455c0.135,0.315,0.474,0.474,0.767,0.474
		c0.654,0,0.936-0.586,0.936-1.951C35.862,4.646,35.761,4.139,35.558,3.879z"/>
		<path class="st0" d="M42.659,8.007c-0.395,0.315-0.789,0.45-1.263,0.45c-0.564,0-0.959-0.169-1.286-0.529
		c-0.045,0.203-0.057,0.259-0.157,0.417H38.6c0.112-0.26,0.146-0.429,0.146-1.229V1.771c0-0.71-0.022-1.094-0.102-1.421l1.545-0.36
		c0.045,0.395,0.057,0.631,0.057,1.026V2.38c0,0.169-0.012,0.417-0.034,0.507c0.293-0.315,0.699-0.462,1.229-0.462
		c1.409,0,2.289,1.128,2.289,2.932C43.73,6.529,43.369,7.442,42.659,8.007z M41.948,4.409c-0.112-0.496-0.428-0.732-0.823-0.732
		c-0.395,0-0.665,0.248-0.856,0.462V6.8c0.203,0.181,0.439,0.372,0.846,0.372c0.372,0,0.608-0.146,0.732-0.451
		c0.136-0.315,0.17-0.62,0.17-1.33C42.017,4.872,42.005,4.657,41.948,4.409z"/>
		<path class="st0" d="M45.779,1.917c-0.508,0-0.925-0.417-0.925-0.936s0.429-0.936,0.947-0.936c0.507,0,0.913,0.417,0.913,0.936
		S46.298,1.917,45.779,1.917z M45.023,8.345V2.673l1.511-0.237v5.909H45.023z"/>
		<path class="st0" d="M49.645,8.48c-0.644,0-1.162-0.305-1.342-0.79c-0.113-0.293-0.136-0.474-0.136-1.297V2.086
		c0-0.755-0.022-1.218-0.079-1.736L49.633,0c0.057,0.316,0.079,0.688,0.079,1.5v4.499c0,0.992,0.011,1.128,0.102,1.286
		c0.057,0.102,0.181,0.157,0.305,0.157c0.056,0,0.09,0,0.169-0.022l0.259,0.902C50.287,8.424,49.972,8.48,49.645,8.48z"/>
		<path class="st0" d="M52.743,5.932v0.045c0,0.891,0.439,1.398,1.218,1.398c0.519,0,1.004-0.191,1.466-0.575l0.586,0.902
		c-0.665,0.541-1.364,0.801-2.176,0.801c-1.657,0-2.729-1.173-2.729-2.988c0-1.038,0.214-1.726,0.722-2.289
		c0.474-0.53,1.048-0.778,1.815-0.778c0.665,0,1.297,0.226,1.669,0.609c0.529,0.541,0.767,1.319,0.767,2.525v0.35H52.743z
		 M54.513,4.759c0-0.429-0.045-0.654-0.181-0.868c-0.146-0.226-0.36-0.338-0.665-0.338c-0.575,0-0.902,0.45-0.902,1.251v0.022h1.748
		V4.759z"/>
		<path class="st0" d="M59.033,8.525c-0.711,0-1.489-0.226-2.335-0.666l0.542-1.104c0.462,0.282,1.263,0.654,1.917,0.654
		c0.428,0,0.767-0.282,0.767-0.654c0-0.395-0.282-0.598-0.891-0.711L58.356,5.92c-0.384-0.067-0.857-0.338-1.061-0.586
		c-0.202-0.248-0.326-0.665-0.326-1.037c0-1.128,0.891-1.884,2.232-1.884c0.925,0,1.533,0.282,2.063,0.542L60.769,3.97
		c-0.575-0.293-0.992-0.417-1.421-0.417c-0.439,0-0.733,0.226-0.733,0.563c0,0.293,0.192,0.451,0.722,0.586l0.699,0.181
		c0.711,0.181,0.947,0.395,1.15,0.654c0.214,0.271,0.315,0.598,0.315,0.98C61.501,7.713,60.509,8.525,59.033,8.525z"/>
		<path class="st0" d="M71.747,8.412h-1.726l-0.699-3.19c-0.214-0.959-0.35-1.906-0.372-2.211c-0.033,0.215-0.169,1.185-0.372,2.188
		l-0.654,3.214h-1.792l-1.872-7.904h1.669l0.676,3.09c0.294,1.364,0.396,2.413,0.418,2.57c0.033-0.326,0.169-1.432,0.405-2.491
		l0.699-3.169h1.726l0.722,3.507c0.146,0.699,0.315,1.939,0.338,2.063c0.022-0.271,0.26-1.838,0.429-2.594l0.643-2.977h1.658
		L71.747,8.412z"/>
		<path class="st0" d="M75.181,1.917c-0.508,0-0.925-0.417-0.925-0.936s0.429-0.936,0.947-0.936c0.507,0,0.913,0.417,0.913,0.936
		S75.7,1.917,75.181,1.917z M74.425,8.345V2.673l1.511-0.237v5.909H74.425z"/>
		<path class="st0" d="M79.34,8.525c-0.711,0-1.489-0.226-2.335-0.666l0.542-1.104c0.462,0.282,1.263,0.654,1.917,0.654
		c0.428,0,0.767-0.282,0.767-0.654c0-0.395-0.282-0.598-0.891-0.711L78.664,5.92c-0.384-0.067-0.857-0.338-1.061-0.586
		c-0.202-0.248-0.326-0.665-0.326-1.037c0-1.128,0.891-1.884,2.232-1.884c0.925,0,1.533,0.282,2.063,0.542L81.077,3.97
		c-0.575-0.293-0.992-0.417-1.421-0.417c-0.439,0-0.733,0.226-0.733,0.563c0,0.293,0.192,0.451,0.722,0.586l0.699,0.181
		c0.711,0.181,0.947,0.395,1.15,0.654c0.214,0.271,0.315,0.598,0.315,0.98C81.809,7.713,80.817,8.525,79.34,8.525z"/>
		<path class="st0" d="M84.76,8.525c-0.711,0-1.489-0.226-2.335-0.666l0.542-1.104c0.462,0.282,1.263,0.654,1.917,0.654
		c0.428,0,0.767-0.282,0.767-0.654c0-0.395-0.282-0.598-0.891-0.711L84.083,5.92c-0.384-0.067-0.857-0.338-1.061-0.586
		c-0.202-0.248-0.326-0.665-0.326-1.037c0-1.128,0.891-1.884,2.232-1.884c0.925,0,1.533,0.282,2.063,0.542L86.497,3.97
		c-0.575-0.293-0.992-0.417-1.421-0.417c-0.439,0-0.733,0.226-0.733,0.563c0,0.293,0.192,0.451,0.722,0.586l0.699,0.181
		c0.711,0.181,0.947,0.395,1.15,0.654c0.214,0.271,0.315,0.598,0.315,0.98C87.229,7.713,86.237,8.525,84.76,8.525z"/>
		<path class="st0" d="M89.763,5.932v0.045c0,0.891,0.439,1.398,1.218,1.398c0.519,0,1.004-0.191,1.466-0.575l0.587,0.902
		c-0.666,0.541-1.365,0.801-2.177,0.801c-1.657,0-2.729-1.173-2.729-2.988c0-1.038,0.214-1.726,0.722-2.289
		c0.474-0.53,1.048-0.778,1.815-0.778c0.665,0,1.297,0.226,1.669,0.609c0.529,0.541,0.767,1.319,0.767,2.525v0.35H89.763z
		 M91.534,4.759c0-0.429-0.045-0.654-0.181-0.868c-0.146-0.226-0.36-0.338-0.665-0.338c-0.575,0-0.902,0.45-0.902,1.251v0.022h1.748
		V4.759z"/>
		<path class="st0" d="M97.349,8.345V4.59c0-0.654-0.113-0.846-0.508-0.846c-0.305,0-0.699,0.203-1.049,0.519v4.082h-1.511V4.161
		c0-0.496-0.067-0.97-0.203-1.354l1.342-0.383c0.136,0.236,0.215,0.484,0.215,0.722c0.226-0.158,0.417-0.293,0.665-0.429
		C96.605,2.56,97,2.47,97.337,2.47c0.643,0,1.207,0.338,1.387,0.835c0.079,0.214,0.113,0.462,0.113,0.822v4.218H97.349z"/>
		<path class="st0" d="M4.792,20.403c-0.395,0.315-0.79,0.45-1.263,0.45c-0.564,0-0.958-0.169-1.286-0.529
		c-0.045,0.203-0.056,0.259-0.158,0.417H0.733c0.113-0.26,0.146-0.429,0.146-1.229v-5.345c0-0.71-0.022-1.094-0.102-1.421
		l1.545-0.36c0.045,0.395,0.056,0.631,0.056,1.026v1.364c0,0.169-0.011,0.417-0.034,0.507c0.293-0.315,0.699-0.462,1.229-0.462
		c1.41,0,2.289,1.128,2.289,2.932C5.863,18.926,5.502,19.839,4.792,20.403z M4.082,16.806c-0.113-0.496-0.429-0.732-0.823-0.732
		s-0.666,0.248-0.857,0.462v2.661c0.203,0.181,0.439,0.372,0.846,0.372c0.372,0,0.609-0.146,0.733-0.451
		c0.135-0.315,0.169-0.62,0.169-1.33C4.149,17.269,4.138,17.054,4.082,16.806z"/>
		<path class="st0" d="M8.51,18.328v0.045c0,0.891,0.439,1.398,1.218,1.398c0.519,0,1.003-0.191,1.466-0.575l0.586,0.902
		c-0.666,0.541-1.364,0.801-2.176,0.801c-1.658,0-2.729-1.173-2.729-2.988c0-1.038,0.214-1.726,0.722-2.289
		c0.474-0.53,1.049-0.778,1.815-0.778c0.666,0,1.297,0.226,1.669,0.609c0.53,0.541,0.767,1.319,0.767,2.525v0.35H8.51z
		 M10.28,17.155c0-0.429-0.045-0.654-0.181-0.868c-0.146-0.226-0.361-0.338-0.665-0.338c-0.575,0-0.902,0.45-0.902,1.251v0.022
		h1.748V17.155z"/>
		<path class="st0" d="M17.686,16.027c-0.146,0-0.305-0.022-0.395-0.033c0.226,0.271,0.338,0.563,0.338,0.947
		c0,0.992-0.902,1.714-2.131,1.714c-0.068,0-0.113,0-0.226-0.012c-0.384,0.181-0.598,0.316-0.598,0.474
		c0,0.079,0.09,0.136,0.248,0.136l0.812,0.011c0.879,0.012,1.342,0.146,1.748,0.52c0.338,0.315,0.496,0.71,0.496,1.229
		c0,0.485-0.146,0.857-0.462,1.195c-0.507,0.541-1.375,0.744-2.278,0.744c-0.823,0-1.668-0.135-2.188-0.62
		c-0.315-0.293-0.474-0.632-0.474-1.026c0-0.315,0.079-0.474,0.135-0.586h1.398c-0.056,0.135-0.068,0.214-0.068,0.372
		c0,0.462,0.384,0.71,1.083,0.71c0.384,0,0.71-0.045,0.947-0.191c0.226-0.135,0.372-0.35,0.372-0.586
		c0-0.519-0.462-0.677-1.06-0.688l-0.643-0.011c-0.676-0.012-1.116-0.068-1.387-0.181c-0.271-0.102-0.44-0.36-0.44-0.756
		c0-0.372,0.113-0.722,1.06-0.97c-0.834-0.214-1.24-0.744-1.24-1.601c0-1.185,0.958-1.951,2.436-1.951
		c0.327,0,0.62,0.045,1.037,0.146c0.316,0.079,0.519,0.124,0.71,0.124c0.417,0,0.846-0.181,1.195-0.496l0.632,0.959
		C18.418,15.903,18.103,16.027,17.686,16.027z M15.16,15.972c-0.575,0-0.902,0.315-0.902,0.856c0,0.587,0.361,0.823,0.891,0.823
		c0.598,0,0.924-0.293,0.924-0.823C16.073,16.287,15.735,15.972,15.16,15.972z"/>
		<path class="st0" d="M20.128,14.313c-0.507,0-0.924-0.417-0.924-0.936s0.428-0.936,0.947-0.936c0.507,0,0.913,0.417,0.913,0.936
		S20.647,14.313,20.128,14.313z M19.373,20.741v-5.672l1.511-0.237v5.909H19.373z"/>
		<path class="st0" d="M25.641,20.741v-3.755c0-0.654-0.113-0.846-0.508-0.846c-0.304,0-0.699,0.203-1.048,0.519v4.082h-1.511v-4.184
		c0-0.496-0.068-0.97-0.203-1.354l1.342-0.383c0.135,0.236,0.214,0.484,0.214,0.722c0.226-0.158,0.417-0.293,0.666-0.429
		c0.304-0.158,0.699-0.248,1.037-0.248c0.643,0,1.207,0.338,1.387,0.835c0.079,0.214,0.113,0.462,0.113,0.822v4.218H25.641z"/>
		<path class="st0" d="M31.885,20.741v-3.755c0-0.654-0.113-0.846-0.508-0.846c-0.305,0-0.699,0.203-1.049,0.519v4.082h-1.511v-4.184
		c0-0.496-0.067-0.97-0.203-1.354l1.342-0.383c0.136,0.236,0.215,0.484,0.215,0.722c0.226-0.158,0.417-0.293,0.665-0.429
		c0.305-0.158,0.699-0.248,1.037-0.248c0.643,0,1.207,0.338,1.387,0.835c0.079,0.214,0.113,0.462,0.113,0.822v4.218H31.885z"/>
		<path class="st0" d="M36.718,20.877c-0.767,0-1.375-0.339-1.556-0.846c-0.09-0.248-0.102-0.361-0.102-0.892v-3.135h-0.575v-1.037
		h0.575c0-0.563,0-0.936,0.057-1.364l1.533-0.384c-0.057,0.53-0.09,1.162-0.09,1.748h1.353l-0.383,1.037h-0.97v2.898
		c0,0.732,0.135,0.925,0.653,0.925c0.136,0,0.271-0.034,0.542-0.113l0.191,0.902C37.508,20.798,37.113,20.877,36.718,20.877z"/>
		<path class="st0" d="M47.337,20.741V16.93c0-0.688-0.079-0.823-0.474-0.823c-0.282,0-0.677,0.192-1.004,0.485v4.149h-1.432v-3.755
		c0-0.722-0.102-0.891-0.519-0.891c-0.282,0-0.665,0.146-0.992,0.439v4.206h-1.478v-4.025c0-0.835-0.057-1.195-0.214-1.478
		l1.364-0.372c0.102,0.158,0.146,0.293,0.203,0.587c0.395-0.384,0.879-0.587,1.409-0.587c0.474,0,0.868,0.158,1.173,0.474
		c0.079,0.079,0.158,0.181,0.226,0.282c0.53-0.542,1.003-0.756,1.635-0.756c0.451,0,0.88,0.136,1.139,0.361
		c0.327,0.281,0.429,0.62,0.429,1.409v4.104H47.337z"/>
		<path class="st0" d="M51.245,14.313c-0.508,0-0.924-0.417-0.924-0.936s0.428-0.936,0.947-0.936c0.507,0,0.913,0.417,0.913,0.936
		S51.763,14.313,51.245,14.313z M50.489,20.741v-5.672L52,14.832v5.909H50.489z"/>
		<path class="st0" d="M55.346,20.877c-0.767,0-1.375-0.339-1.556-0.846c-0.09-0.248-0.102-0.361-0.102-0.892v-3.135h-0.575v-1.037
		h0.575c0-0.563,0-0.936,0.057-1.364l1.533-0.384c-0.057,0.53-0.09,1.162-0.09,1.748h1.353l-0.383,1.037h-0.97v2.898
		c0,0.732,0.135,0.925,0.653,0.925c0.136,0,0.271-0.034,0.542-0.113l0.191,0.902C56.136,20.798,55.742,20.877,55.346,20.877z"/>
		<path class="st0" d="M63.812,20.899c-0.192-0.136-0.35-0.327-0.451-0.564c-0.372,0.361-0.914,0.553-1.522,0.553
		c-0.812,0-1.511-0.383-1.703-0.936c-0.09-0.26-0.124-0.564-0.124-1.15v-3.698l1.488-0.282v3.71c0,0.519,0.046,0.789,0.124,0.947
		c0.079,0.157,0.305,0.271,0.53,0.271c0.372,0,0.823-0.271,0.937-0.553v-4.06l1.443-0.305v4.409c0,0.384,0.124,0.778,0.35,1.049
		L63.812,20.899z"/>
		<path class="st0" d="M69.289,20.741v-3.755c0-0.654-0.113-0.846-0.508-0.846c-0.305,0-0.699,0.203-1.049,0.519v4.082h-1.511v-4.184
		c0-0.496-0.067-0.97-0.203-1.354l1.342-0.383c0.136,0.236,0.215,0.484,0.215,0.722c0.226-0.158,0.417-0.293,0.665-0.429
		c0.305-0.158,0.699-0.248,1.037-0.248c0.643,0,1.207,0.338,1.387,0.835c0.079,0.214,0.113,0.462,0.113,0.822v4.218H69.289z"/>
		<path class="st0" d="M74.202,20.922c-0.711,0-1.489-0.226-2.335-0.666l0.542-1.104c0.462,0.282,1.263,0.654,1.917,0.654
		c0.428,0,0.767-0.282,0.767-0.654c0-0.395-0.282-0.598-0.891-0.711l-0.677-0.124c-0.384-0.067-0.857-0.338-1.061-0.586
		c-0.202-0.248-0.326-0.665-0.326-1.037c0-1.128,0.891-1.884,2.232-1.884c0.925,0,1.533,0.282,2.063,0.542l-0.496,1.015
		c-0.575-0.293-0.992-0.417-1.421-0.417c-0.439,0-0.733,0.226-0.733,0.563c0,0.293,0.192,0.451,0.722,0.586l0.699,0.181
		c0.711,0.181,0.947,0.395,1.15,0.654c0.214,0.271,0.315,0.598,0.315,0.98C76.67,20.109,75.678,20.922,74.202,20.922z"/>
		<path class="st0" d="M78.674,20.922c-0.553,0-0.992-0.451-0.992-1.004c0-0.541,0.439-0.981,0.981-0.981
		c0.552,0,1.003,0.44,1.003,0.981C79.667,20.471,79.215,20.922,78.674,20.922z"/>
</g>
</svg>
