<?xml version="1.0" encoding="utf-8"?>
<!-- Generator: Adobe Illustrator 27.7.0, SVG Export Plug-In . SVG Version: 6.00 Build 0)  -->
<svg version="1.1" id="Ebene_1" xmlns="http://www.w3.org/2000/svg" xmlns:xlink="http://www.w3.org/1999/xlink" x="0px" y="0px"
	 viewBox="0 0 217.644 241.03" style="enable-background:new 0 0 217.644 241.03;" xml:space="preserve">
<style type="text/css">
	.st0{fill:#97989A;}
	.st1{fill:#FFD100;}
	.st2{fill:#103366;}
</style>
<g>
	<rect x="29.432" y="29.432" class="st0" width="84.761" height="133.763"/>
	<rect x="32.081" y="32.081" class="st1" width="79.463" height="79.463"/>
	<rect x="32.081" y="111.544" class="st2" width="79.463" height="49.002"/>
	<path class="st2" d="M66.811,103.068H37.38v-8.445c0-2.11,0.283-3.989,0.843-5.584c0.569-1.614,1.455-2.98,2.638-4.059
		c1.179-1.075,2.691-1.892,4.495-2.427c1.782-0.526,3.927-0.795,6.377-0.795c2.248,0,4.32,0.269,6.156,0.795
		c1.86,0.534,3.469,1.379,4.785,2.513c1.321,1.138,2.353,2.612,3.066,4.382c0.71,1.758,1.071,3.882,1.071,6.319V103.068z
		 M42.698,97.151h18.794v-1.842c0-2.367-0.746-4.184-2.218-5.399c-1.496-1.235-3.915-1.861-7.189-1.861
		c-1.514,0-2.881,0.116-4.064,0.347c-1.152,0.224-2.139,0.604-2.93,1.133c-0.772,0.515-1.37,1.219-1.773,2.088
		c-0.411,0.884-0.619,2.006-0.619,3.342V97.151z"/>
	<path class="st2" d="M66.811,82.675L37.38,73.919v-8.175l29.432-8.76v6.835l-5.651,1.585v9.43l5.651,1.629V82.675z M44.522,70.053
		l11.428,3.25V66.84L44.522,70.053z"/>
	<polygon class="st2" points="37.379,61.294 37.379,40.027 42.676,40.027 42.676,47.203 66.811,47.203 66.811,53.557 42.676,53.557 
		42.676,59.789 	"/>
	<path class="st2" d="M106.247,65.456L106.247,65.456c0-1.46-1.187-2.649-2.649-2.649l0-14.833c0-2.633-2.135-4.768-4.768-4.768
		c-1.048,0-2.017,0.339-2.804,0.913c-0.534-2.049-2.396-3.561-4.612-3.561c-2.633,0-4.768,2.135-4.768,4.768v15.637
		c-0.758-0.507-1.669-0.803-2.649-0.803c-2.38,0-4.352,1.744-4.71,4.024c-0.769-0.532-1.701-0.845-2.707-0.845
		c-2.633,0-4.768,2.135-4.768,4.768l0,12.184h0c0,0.002,0,0.004,0,0.005c0.001,0.155,0.025,3.834,0.549,6.552
		c0.338,1.753,0.673,2.677,0.968,3.491c0.045,0.124,0.089,0.246,0.133,0.369c1.02,2.887,4.21,11.579,4.242,11.667
		c0.157,0.429,0.563,0.695,0.995,0.695c0.121,0,0.245-0.021,0.365-0.065c0.549-0.202,0.831-0.81,0.629-1.36
		c-0.032-0.087-3.218-8.767-4.233-11.642c-0.045-0.128-0.092-0.256-0.139-0.386c-0.282-0.777-0.573-1.581-0.88-3.17
		c-0.486-2.522-0.51-6.126-0.511-6.162c0-0.001,0-0.001,0-0.002v-0.796c0.758,0.507,1.669,0.803,2.649,0.803
		c1.498,0,2.834-0.692,3.708-1.772c0.874,1.081,2.21,1.772,3.708,1.772c2.633,0,4.768-2.135,4.768-4.768l0-30.2
		c0.002-1.461,1.187-2.645,2.649-2.645c1.462,0,2.647,1.184,2.649,2.645v23.843c0,0.585,0.474,1.059,1.06,1.059
		c0.585,0,1.06-0.474,1.06-1.059V47.97c0.002-1.461,1.187-2.645,2.649-2.645c1.463,0,2.649,1.186,2.649,2.649l0,15.27
		c-2.168,0.927-3.708,3.23-3.708,5.92c0,0,0,9.295,0,9.295c-2.522,0.868-4.423,2.119-5.791,3.813
		c-1.519,1.881-2.396,4.32-2.681,7.457c-0.053,0.583,0.377,1.098,0.959,1.151c0.033,0.003,0.065,0.004,0.097,0.004
		c0.542,0,1.004-0.414,1.054-0.964c0.482-5.303,2.792-8.196,7.725-9.676c0.459-0.138,0.755-0.559,0.755-1.015l0-10.065
		c0-2.337,1.66-4.238,3.708-4.238c0.291,0,0.53,0.238,0.53,0.53l0,20.131c0,0.32-0.057,0.628-0.161,0.912l-5.6,15.143
		c-0.203,0.549,0.077,1.158,0.626,1.361c0.121,0.045,0.245,0.066,0.367,0.066c0.431,0,0.836-0.265,0.994-0.692
		c0,0,5.603-15.148,5.604-15.152c0.187-0.511,0.289-1.062,0.289-1.638L106.247,65.456z M79.229,75.525
		c-0.002,1.461-1.187,2.645-2.649,2.645c-1.463,0-2.649-1.186-2.649-2.649v-7.417v0c0-1.463,1.186-2.649,2.649-2.649
		c1.462,0,2.647,1.184,2.649,2.645V75.525z M86.646,75.521c0,1.463-1.186,2.649-2.649,2.649s-2.649-1.186-2.649-2.649V64.926
		c0-1.463,1.186-2.649,2.649-2.649s2.649,1.186,2.649,2.649V75.521z"/>
	<path class="st1" d="M56.003,145.902c-0.037,0-0.045,0-6.461-0.465l-0.034-0.003c-0.507-0.037-1.201-0.088-1.733-0.627
		c-0.47-0.476-0.664-1.033-0.629-1.804c0.045-0.997,0.153-2.447,0.231-3.386c0.044-0.534,0.14-1.1,0.767-1.638
		c0.504-0.432,1.103-0.482,1.509-0.482c0.175,0,0.346,0.01,0.505,0.022l4.582,0.344c0.005,0,0.009,0.001,0.014,0.001l0.072,0.006
		c0.33,0.027,0.945,0.078,1.433,0.484c0.393,0.328,0.556,0.72,0.699,1.066l0.022,0.053c0.328,0.788,0.714,1.799,1.215,3.181
		c0.336,0.928,0.253,1.81-0.228,2.418C57.385,145.807,56.611,145.902,56.003,145.902L56.003,145.902z M49.653,138.955
		c-0.362,0-0.49,0.07-0.561,0.131c-0.191,0.164-0.231,0.262-0.263,0.652c-0.077,0.926-0.183,2.354-0.227,3.331
		c-0.02,0.446,0.07,0.573,0.211,0.715c0.137,0.139,0.395,0.168,0.802,0.197l0.034,0.002c2.097,0.152,6.041,0.437,6.378,0.461
		c0.489-0.003,0.659-0.1,0.799-0.277c0.187-0.236,0.117-0.696,0.001-1.017c-0.492-1.36-0.87-2.35-1.19-3.117l-0.023-0.055
		c-0.111-0.268-0.174-0.412-0.286-0.505c-0.133-0.111-0.438-0.136-0.62-0.151c-0.029-0.002-0.057-0.005-0.082-0.007l-4.573-0.343
		C49.922,138.964,49.782,138.955,49.653,138.955L49.653,138.955z"/>
	<path class="st1" d="M94.993,154.506h-0.054c-1.936,0-4.061-0.009-4.778-0.123c-0.97-0.153-1.597-0.734-1.766-1.635
		c-0.064-0.34-0.165-1.186-0.236-1.804c-1.573,0.103-5.42,0.348-7.433,0.432c-2.694,0.112-6.834,0.163-8.913,0.163
		c-2.079,0-6.219-0.05-8.913-0.163c-2.012-0.084-5.86-0.33-7.433-0.432c-0.071,0.618-0.172,1.464-0.236,1.804
		c-0.169,0.901-0.796,1.482-1.766,1.635c-0.717,0.113-2.842,0.123-4.778,0.123h-0.054c-1.877,0-3.161-0.047-3.756-0.284
		c-0.745-0.296-1.191-0.86-1.328-1.678c-0.085-0.511-0.104-1.76-0.124-3.757c-0.018-1.743-0.02-6.979,0.058-9.211
		c0.075-2.158,0.629-4.576,1.112-5.909c0.205-0.567,0.523-1.177,0.802-1.664c-0.759-0.136-1.667-0.3-1.821-0.334
		c-0.026-0.006-0.056-0.011-0.088-0.018c-0.413-0.081-1.511-0.294-1.732-1.623c-0.065-0.39-0.002-0.936,0.068-1.461l0.004-0.033
		c0.255-1.914,1.451-2.2,2.142-2.2c0.047,0,0.096,0.001,0.146,0.004c0.312,0.017,1,0.041,1.728,0.067
		c0.891,0.031,1.9,0.067,2.455,0.098c0.217,0.012,0.368,0.017,0.49,0.017c0.488,0,0.488,0,1.035-1.05
		c0.036-0.069,0.116-0.226,0.221-0.43c0.252-0.492,0.634-1.235,0.903-1.747c0.429-0.815,1.077-2.046,2.261-3.183
		c1.082-1.038,2.46-1.67,4.213-1.932c1.681-0.251,5.796-0.435,7.998-0.466c1.681-0.024,4.746-0.063,6.393-0.063
		c1.647,0,4.712,0.04,6.393,0.063c2.201,0.031,6.316,0.215,7.997,0.466c1.754,0.262,3.132,0.894,4.213,1.932
		c1.185,1.137,1.833,2.369,2.261,3.183c0.269,0.511,0.651,1.255,0.903,1.747c0.105,0.205,0.185,0.361,0.221,0.43
		c0.545,1.047,0.547,1.05,1.031,1.05c0.001,0,0.003,0,0.004,0c0.122,0,0.273-0.005,0.49-0.017c0.555-0.03,1.564-0.066,2.455-0.098
		c0.728-0.026,1.416-0.05,1.728-0.067c0.05-0.003,0.099-0.004,0.146-0.004c0.69,0,1.886,0.286,2.142,2.2l0.005,0.035
		c0.07,0.525,0.133,1.071,0.068,1.46c-0.221,1.329-1.319,1.543-1.732,1.623c-0.032,0.006-0.061,0.012-0.088,0.018
		c-0.154,0.034-1.062,0.198-1.821,0.334c0.279,0.487,0.597,1.098,0.802,1.664c0.483,1.333,1.037,3.751,1.112,5.909
		c0.078,2.233,0.076,7.469,0.058,9.211c-0.021,1.997-0.039,3.246-0.124,3.757c-0.136,0.818-0.583,1.383-1.328,1.678
		C98.154,154.459,96.87,154.506,94.993,154.506L94.993,154.506z M88.806,149.443c0.369,0,0.683,0.278,0.724,0.65
		c0.057,0.527,0.222,1.984,0.297,2.387c0.04,0.212,0.109,0.393,0.562,0.464c0.664,0.105,3.289,0.105,4.551,0.105h0.054
		c1.833,0,2.916-0.061,3.219-0.181c0.271-0.108,0.375-0.245,0.428-0.564c0.073-0.436,0.09-2.153,0.105-3.533
		c0.018-1.733,0.02-6.934-0.057-9.146c-0.074-2.136-0.654-4.438-1.025-5.464c-0.366-1.011-1.209-2.271-1.217-2.284
		c-0.137-0.204-0.162-0.464-0.066-0.691c0.096-0.227,0.301-0.389,0.543-0.432c0.997-0.177,2.643-0.471,2.812-0.509
		c0.038-0.008,0.08-0.017,0.125-0.026c0.414-0.081,0.525-0.14,0.574-0.433c0.034-0.207-0.045-0.803-0.075-1.028l-0.005-0.035
		c-0.125-0.936-0.469-0.936-0.698-0.936c-0.022,0-0.045,0.001-0.068,0.002c-0.326,0.018-0.988,0.041-1.755,0.068
		c-0.884,0.031-1.886,0.067-2.427,0.096c-0.248,0.014-0.418,0.019-0.569,0.019c-1.372,0-1.711-0.652-2.327-1.834
		c-0.037-0.07-0.118-0.23-0.225-0.438c-0.251-0.489-0.63-1.229-0.896-1.733c-0.408-0.775-0.967-1.837-1.981-2.811
		c-0.856-0.822-1.975-1.327-3.42-1.542c-1.619-0.242-5.641-0.42-7.803-0.45c-1.677-0.024-4.735-0.063-6.373-0.063
		c-1.638,0-4.696,0.04-6.373,0.063c-2.162,0.03-6.184,0.208-7.803,0.45c-1.445,0.216-2.563,0.72-3.42,1.542
		c-1.014,0.974-1.573,2.035-1.981,2.811c-0.266,0.505-0.645,1.244-0.896,1.733c-0.107,0.208-0.189,0.367-0.225,0.438
		c-0.616,1.183-0.955,1.834-2.327,1.834c-0.151,0-0.322-0.006-0.569-0.019c-0.541-0.03-1.543-0.065-2.427-0.096
		c-0.767-0.027-1.429-0.05-1.755-0.068c-0.023-0.001-0.046-0.002-0.068-0.002c-0.228,0-0.573,0-0.698,0.936l-0.004,0.033
		c-0.03,0.225-0.11,0.822-0.075,1.029c0.049,0.293,0.159,0.352,0.574,0.433c0.045,0.009,0.088,0.017,0.125,0.026
		c0.17,0.038,1.815,0.332,2.812,0.509c0.242,0.043,0.447,0.206,0.543,0.432c0.096,0.227,0.072,0.487-0.066,0.691
		c-0.008,0.012-0.853,1.277-1.217,2.284c-0.372,1.026-0.951,3.327-1.026,5.464c-0.077,2.211-0.075,7.413-0.057,9.146
		c0.014,1.38,0.032,3.097,0.105,3.533c0.053,0.319,0.157,0.456,0.428,0.564c0.303,0.12,1.386,0.181,3.219,0.181h0.054
		c1.261,0,3.886,0,4.551-0.105c0.452-0.071,0.522-0.252,0.562-0.464c0.076-0.403,0.24-1.859,0.297-2.387
		c0.042-0.388,0.383-0.673,0.773-0.648c0.055,0.004,5.554,0.37,8.092,0.476c2.673,0.111,6.786,0.162,8.853,0.162
		c2.067,0,6.179-0.05,8.853-0.162c2.538-0.106,8.036-0.472,8.092-0.476C88.773,149.444,88.79,149.443,88.806,149.443L88.806,149.443
		z"/>
	<path class="st1" d="M71.813,145.196c-0.884,0-2.094,0-3.682-0.019c-1.57-0.019-5.578-0.114-5.619-0.115
		c-0.402-0.009-0.72-0.343-0.711-0.745c0.009-0.396,0.334-0.711,0.728-0.711c0.006,0,0.012,0,0.018,0
		c0.04,0.001,4.04,0.096,5.602,0.114c1.579,0.019,2.785,0.019,3.665,0.019c0.88,0,2.085,0,3.665-0.019
		c1.561-0.019,5.561-0.113,5.602-0.114c0.006,0,0.012,0,0.018,0c0.394,0,0.718,0.315,0.728,0.711
		c0.01,0.402-0.309,0.736-0.711,0.745c-0.04,0.001-4.049,0.096-5.619,0.115C73.907,145.196,72.696,145.196,71.813,145.196
		L71.813,145.196z"/>
	<path class="st1" d="M88.829,130.061c-0.278,0-0.644-0.032-1.151-0.075c-0.388-0.033-0.871-0.075-1.459-0.115
		c-1.413-0.096-5.419-0.304-8.038-0.361c-2.626-0.057-5.06-0.057-6.367-0.057c-1.308,0-3.742,0-6.367,0.057
		c-2.62,0.057-6.626,0.265-8.038,0.361c-0.588,0.04-1.071,0.081-1.459,0.115c-0.507,0.044-0.873,0.075-1.151,0.075
		c-0.24,0-0.877,0-1.162-0.572c-0.272-0.543-0.014-0.997,0.838-2.501c0.105-0.185,0.219-0.386,0.342-0.605
		c1.103-1.96,1.968-3.174,3.125-3.575c0.892-0.309,3.412-0.424,7.155-0.562l0.308-0.011c3.249-0.121,5.565-0.134,6.41-0.134
		c0.845,0,3.161,0.013,6.41,0.134c3.813,0.142,6.58,0.266,7.464,0.574c1.158,0.404,2.022,1.616,3.124,3.575
		c0.123,0.219,0.238,0.42,0.342,0.605c0.853,1.504,1.11,1.958,0.838,2.501C89.705,130.061,89.069,130.061,88.829,130.061
		L88.829,130.061z M71.813,123.556c-0.837,0-3.131,0.013-6.356,0.133l-0.308,0.011c-2.664,0.099-5.979,0.222-6.732,0.483
		c-0.62,0.215-1.274,1.032-2.333,2.913c-0.124,0.221-0.239,0.424-0.345,0.61c-0.179,0.316-0.354,0.623-0.489,0.875
		c0.163-0.012,0.354-0.029,0.572-0.047c0.394-0.034,0.884-0.076,1.486-0.117c1.424-0.097,5.464-0.307,8.105-0.364
		c2.641-0.057,5.086-0.057,6.399-0.057s3.758,0,6.399,0.057c2.642,0.057,6.681,0.267,8.105,0.364
		c0.601,0.041,1.092,0.083,1.486,0.117c0.219,0.019,0.41,0.035,0.573,0.047c-0.136-0.251-0.31-0.559-0.489-0.875
		c-0.106-0.186-0.221-0.389-0.345-0.61c-1.057-1.88-1.712-2.697-2.334-2.913c-0.746-0.26-4.533-0.401-7.039-0.494
		C74.944,123.569,72.649,123.556,71.813,123.556L71.813,123.556z"/>
	<path class="st1" d="M87.622,145.902c-0.609,0-1.382-0.094-1.964-0.83c-0.481-0.608-0.564-1.489-0.228-2.417
		c0.501-1.383,0.887-2.394,1.215-3.181l0.022-0.053c0.144-0.346,0.306-0.738,0.699-1.066c0.487-0.406,1.102-0.457,1.433-0.484
		l0.072-0.006c0.004,0,0.009-0.001,0.013-0.001l4.58-0.343c0.162-0.012,0.333-0.022,0.508-0.022c0.407,0,1.006,0.05,1.509,0.482
		c0.627,0.537,0.723,1.103,0.767,1.638c0.078,0.94,0.186,2.391,0.231,3.386c0.035,0.771-0.159,1.327-0.629,1.804
		c-0.532,0.539-1.226,0.59-1.733,0.627l-0.033,0.002C87.668,145.902,87.659,145.902,87.622,145.902L87.622,145.902z M89,139.316
		c-0.025,0.002-0.053,0.005-0.082,0.007c-0.182,0.015-0.486,0.04-0.62,0.151c-0.112,0.093-0.175,0.237-0.286,0.505l-0.023,0.055
		c-0.319,0.765-0.697,1.755-1.19,3.116c-0.116,0.322-0.186,0.781,0.001,1.017c0.14,0.177,0.31,0.274,0.799,0.277
		c0.337-0.023,4.281-0.309,6.379-0.461l0.033-0.002c0.408-0.03,0.665-0.058,0.802-0.197c0.14-0.142,0.231-0.269,0.211-0.715
		c-0.044-0.975-0.15-2.404-0.227-3.331c-0.032-0.391-0.072-0.488-0.263-0.652c-0.071-0.061-0.199-0.131-0.561-0.131
		c-0.129,0-0.269,0.009-0.401,0.018L89,139.316L89,139.316z"/>
</g>
</svg>
