<?xml version="1.0" encoding="utf-8"?>
<!-- Generator: Adobe Illustrator 27.7.0, SVG Export Plug-In . SVG Version: 6.00 Build 0)  -->
<svg version="1.1" id="Ebene_1" xmlns="http://www.w3.org/2000/svg" xmlns:xlink="http://www.w3.org/1999/xlink" x="0px" y="0px"
	 viewBox="0 0 217.644 241.03" style="enable-background:new 0 0 217.644 241.03;" xml:space="preserve">
<style type="text/css">
	.st0{fill:#103366;}
	.st1{fill:#97989A;}
	.st2{fill:#FFD100;}
</style>
<line class="st0" x1="31.149" y1="211.598" x2="31.649" y2="211.598"/>
<g>
	<path class="st0" d="M37.246,191.616l-0.882-2.971H32.69l-0.882,2.971h-2.629l4.105-12.55h2.719l3.943,12.55H37.246z
		 M35.067,184.036l-0.504-2.215c-0.072,0.288-0.378,1.584-0.594,2.413c-0.234,0.9-0.396,1.494-0.666,2.322h2.449
		C35.661,186.286,35.265,184.9,35.067,184.036z"/>
	<path class="st0" d="M47.217,191.868c-0.306-0.216-0.558-0.522-0.72-0.9c-0.594,0.576-1.458,0.883-2.431,0.883
		c-1.296,0-2.413-0.612-2.719-1.495c-0.144-0.414-0.198-0.899-0.198-1.836v-5.906l2.377-0.45v5.924c0,0.828,0.072,1.261,0.198,1.513
		c0.126,0.252,0.486,0.433,0.846,0.433c0.594,0,1.314-0.433,1.495-0.883v-6.482l2.305-0.486v7.04c0,0.612,0.198,1.242,0.558,1.674
		L47.217,191.868z"/>
</g>
<g>
	<path class="st0" d="M53.714,191.832c-1.224,0-2.197-0.54-2.485-1.351c-0.143-0.396-0.162-0.576-0.162-1.422v-5.006H50.15v-1.656
		h0.918c0-0.9,0-1.494,0.09-2.179l2.449-0.612c-0.09,0.847-0.144,1.854-0.144,2.791h2.161l-0.612,1.656h-1.548v4.628
		c0,1.17,0.216,1.477,1.044,1.477c0.216,0,0.432-0.055,0.864-0.181l0.306,1.44C54.975,191.706,54.345,191.832,53.714,191.832z"/>
</g>
<g>
	<path class="st0" d="M63.742,190.536c-0.702,0.792-1.621,1.278-3.043,1.278c-2.502,0-4.141-1.873-4.141-4.772
		c0-2.899,1.656-4.825,4.141-4.825c1.314,0,2.341,0.45,3.133,1.386c0.738,0.864,1.062,1.873,1.062,3.367
		C64.894,188.556,64.534,189.636,63.742,190.536z M61.779,184.486C61.545,184.18,61.167,184,60.735,184
		c-0.576,0-1.044,0.36-1.242,0.937c-0.162,0.486-0.252,1.134-0.252,2.053c0,1.061,0.108,1.854,0.306,2.322
		c0.216,0.504,0.756,0.756,1.225,0.756c1.044,0,1.494-0.936,1.494-3.114C62.265,185.71,62.104,184.9,61.779,184.486z"/>
</g>
<g>
	<path class="st0" d="M76.307,191.616v-6.086c0-1.099-0.126-1.314-0.756-1.314c-0.45,0-1.08,0.307-1.603,0.774v6.626h-2.287v-5.996
		c0-1.152-0.162-1.422-0.828-1.422c-0.45,0-1.062,0.233-1.585,0.702v6.716H66.89v-6.428c0-1.333-0.09-1.909-0.342-2.359l2.179-0.594
		c0.162,0.252,0.234,0.468,0.324,0.936c0.63-0.612,1.404-0.936,2.251-0.936c0.756,0,1.386,0.252,1.873,0.756
		c0.126,0.127,0.252,0.288,0.36,0.45c0.846-0.864,1.602-1.206,2.61-1.206c0.72,0,1.405,0.216,1.819,0.576
		c0.522,0.45,0.684,0.99,0.684,2.251v6.554H76.307z"/>
</g>
<g>
	<path class="st0" d="M87.844,190.536c-0.702,0.792-1.621,1.278-3.043,1.278c-2.502,0-4.141-1.873-4.141-4.772
		c0-2.899,1.657-4.825,4.141-4.825c1.314,0,2.341,0.45,3.133,1.386c0.738,0.864,1.062,1.873,1.062,3.367
		C88.996,188.556,88.636,189.636,87.844,190.536z M85.881,184.486C85.647,184.18,85.269,184,84.837,184
		c-0.576,0-1.045,0.36-1.242,0.937c-0.162,0.486-0.252,1.134-0.252,2.053c0,1.061,0.108,1.854,0.306,2.322
		c0.216,0.504,0.756,0.756,1.225,0.756c1.044,0,1.494-0.936,1.494-3.114C86.367,185.71,86.205,184.9,85.881,184.486z"/>
</g>
<g>
	<path class="st0" d="M97.24,191.076c-0.63,0.504-1.26,0.72-2.017,0.72c-0.9,0-1.53-0.27-2.052-0.846
		c-0.072,0.324-0.09,0.414-0.253,0.666h-2.161c0.18-0.414,0.234-0.685,0.234-1.963v-8.534c0-1.135-0.036-1.747-0.162-2.269
		l2.467-0.576c0.072,0.63,0.09,1.008,0.09,1.639v2.179c0,0.269-0.018,0.666-0.054,0.809c0.468-0.504,1.117-0.738,1.963-0.738
		c2.251,0,3.655,1.801,3.655,4.682C98.95,188.718,98.374,190.176,97.24,191.076z M96.105,185.332c-0.18-0.792-0.684-1.17-1.314-1.17
		c-0.63,0-1.062,0.395-1.368,0.738v4.249c0.324,0.288,0.702,0.594,1.35,0.594c0.594,0,0.973-0.233,1.17-0.72
		c0.216-0.504,0.27-0.99,0.27-2.125C96.213,186.07,96.195,185.729,96.105,185.332z"/>
</g>
<g>
	<path class="st0" d="M102.224,181.354c-0.81,0-1.476-0.667-1.476-1.495c0-0.828,0.684-1.494,1.512-1.494
		c0.81,0,1.458,0.666,1.458,1.494C103.719,180.687,103.053,181.354,102.224,181.354z M101.018,191.616v-9.057l2.413-0.378v9.435
		H101.018z"/>
</g>
<g>
	<path class="st0" d="M108.309,191.832c-1.026,0-1.854-0.486-2.143-1.26c-0.18-0.469-0.216-0.757-0.216-2.071v-6.878
		c0-1.206-0.036-1.944-0.126-2.772l2.466-0.559c0.09,0.504,0.126,1.099,0.126,2.395v7.185c0,1.585,0.018,1.801,0.162,2.053
		c0.09,0.162,0.288,0.252,0.486,0.252c0.09,0,0.144,0,0.27-0.036l0.414,1.44C109.335,191.742,108.831,191.832,108.309,191.832z"/>
</g>
<g>
	<path class="st0" d="M113.15,187.763v0.072c0,1.423,0.702,2.232,1.945,2.232c0.828,0,1.602-0.306,2.34-0.918l0.937,1.44
		c-1.063,0.864-2.179,1.278-3.475,1.278c-2.647,0-4.357-1.872-4.357-4.771c0-1.656,0.342-2.755,1.152-3.655
		c0.756-0.846,1.675-1.242,2.899-1.242c1.062,0,2.071,0.36,2.665,0.973c0.846,0.864,1.224,2.107,1.224,4.033v0.558H113.15z
		 M115.978,185.891c0-0.685-0.072-1.044-0.288-1.387c-0.234-0.36-0.576-0.54-1.062-0.54c-0.918,0-1.44,0.721-1.44,1.999v0.036h2.791
		V185.891z"/>
</g>
<g>
	<path class="st0" d="M123.464,191.904c-1.134,0-2.376-0.36-3.727-1.062l0.864-1.765c0.738,0.45,2.017,1.045,3.061,1.045
		c0.684,0,1.224-0.45,1.224-1.045c0-0.63-0.45-0.954-1.422-1.134l-1.08-0.198c-0.612-0.108-1.369-0.54-1.692-0.936
		c-0.324-0.396-0.522-1.062-0.522-1.656c0-1.801,1.422-3.007,3.565-3.007c1.477,0,2.449,0.45,3.295,0.864l-0.792,1.62
		c-0.918-0.468-1.585-0.666-2.269-0.666c-0.702,0-1.17,0.36-1.17,0.9c0,0.468,0.306,0.72,1.152,0.936l1.116,0.288
		c1.134,0.288,1.513,0.63,1.836,1.044c0.342,0.433,0.504,0.954,0.504,1.566C127.408,190.608,125.823,191.904,123.464,191.904z"/>
</g>
<g>
	<path class="st0" d="M144.293,191.725h-2.755l-1.116-5.096c-0.342-1.53-0.558-3.043-0.594-3.529
		c-0.054,0.342-0.27,1.891-0.594,3.493l-1.044,5.132h-2.863l-2.989-12.622h2.665l1.08,4.934c0.468,2.179,0.63,3.853,0.667,4.105
		c0.054-0.522,0.27-2.287,0.648-3.979l1.117-5.06h2.754l1.152,5.6c0.234,1.116,0.504,3.097,0.54,3.295
		c0.036-0.432,0.414-2.935,0.684-4.142l1.026-4.753h2.646L144.293,191.725z"/>
</g>
<g>
	<path class="st0" d="M150.176,181.354c-0.81,0-1.476-0.667-1.476-1.495c0-0.828,0.684-1.494,1.512-1.494
		c0.81,0,1.458,0.666,1.458,1.494C151.671,180.687,151.005,181.354,150.176,181.354z M148.97,191.616v-9.057l2.413-0.378v9.435
		H148.97z"/>
</g>
<g>
	<path class="st0" d="M156.873,191.904c-1.134,0-2.376-0.36-3.727-1.062l0.864-1.765c0.738,0.45,2.017,1.045,3.061,1.045
		c0.684,0,1.224-0.45,1.224-1.045c0-0.63-0.45-0.954-1.422-1.134l-1.08-0.198c-0.612-0.108-1.369-0.54-1.692-0.936
		c-0.324-0.396-0.522-1.062-0.522-1.656c0-1.801,1.422-3.007,3.565-3.007c1.477,0,2.449,0.45,3.295,0.864l-0.792,1.62
		c-0.918-0.468-1.585-0.666-2.269-0.666c-0.702,0-1.17,0.36-1.17,0.9c0,0.468,0.306,0.72,1.152,0.936l1.116,0.288
		c1.134,0.288,1.513,0.63,1.836,1.044c0.342,0.433,0.504,0.954,0.504,1.566C160.816,190.608,159.231,191.904,156.873,191.904z"/>
</g>
<g>
	<path class="st0" d="M165.657,191.904c-1.134,0-2.377-0.36-3.727-1.062l0.864-1.765c0.738,0.45,2.017,1.045,3.061,1.045
		c0.684,0,1.224-0.45,1.224-1.045c0-0.63-0.45-0.954-1.422-1.134l-1.08-0.198c-0.612-0.108-1.369-0.54-1.692-0.936
		c-0.324-0.396-0.522-1.062-0.522-1.656c0-1.801,1.422-3.007,3.565-3.007c1.477,0,2.449,0.45,3.295,0.864l-0.793,1.62
		c-0.918-0.468-1.584-0.666-2.268-0.666c-0.702,0-1.17,0.36-1.17,0.9c0,0.468,0.306,0.72,1.152,0.936l1.116,0.288
		c1.134,0.288,1.513,0.63,1.837,1.044c0.342,0.433,0.504,0.954,0.504,1.566C169.6,190.608,168.016,191.904,165.657,191.904z"/>
</g>
<g>
	<path class="st0" d="M173.667,187.763v0.072c0,1.423,0.702,2.232,1.945,2.232c0.828,0,1.603-0.306,2.341-0.918l0.936,1.44
		c-1.062,0.864-2.179,1.278-3.475,1.278c-2.646,0-4.357-1.872-4.357-4.771c0-1.656,0.342-2.755,1.152-3.655
		c0.756-0.846,1.675-1.242,2.899-1.242c1.062,0,2.071,0.36,2.665,0.973c0.846,0.864,1.224,2.107,1.224,4.033v0.558H173.667z
		 M176.494,185.891c0-0.685-0.072-1.044-0.288-1.387c-0.234-0.36-0.576-0.54-1.062-0.54c-0.918,0-1.44,0.721-1.44,1.999v0.036h2.791
		V185.891z"/>
</g>
<g>
	<path class="st0" d="M185.835,191.616v-5.996c0-1.044-0.18-1.35-0.811-1.35c-0.486,0-1.116,0.323-1.674,0.828v6.518h-2.413v-6.68
		c0-0.793-0.108-1.549-0.324-2.161l2.143-0.612c0.216,0.379,0.342,0.774,0.342,1.152c0.36-0.252,0.666-0.468,1.062-0.684
		c0.486-0.252,1.117-0.396,1.657-0.396c1.026,0,1.926,0.54,2.214,1.332c0.126,0.343,0.18,0.738,0.18,1.314v6.734H185.835z"/>
</g>
<g>
	<path class="st0" d="M36.886,211.074c-0.63,0.504-1.26,0.72-2.017,0.72c-0.9,0-1.53-0.27-2.053-0.846
		c-0.072,0.324-0.09,0.414-0.252,0.666h-2.161c0.18-0.414,0.234-0.685,0.234-1.963v-8.534c0-1.135-0.036-1.747-0.162-2.269
		l2.467-0.576c0.072,0.63,0.09,1.008,0.09,1.639v2.179c0,0.27-0.018,0.666-0.054,0.81c0.468-0.504,1.117-0.738,1.963-0.738
		c2.25,0,3.655,1.801,3.655,4.682C38.596,208.716,38.02,210.174,36.886,211.074z M35.751,205.33c-0.18-0.792-0.684-1.17-1.314-1.17
		c-0.63,0-1.062,0.395-1.368,0.738v4.249c0.324,0.288,0.702,0.594,1.35,0.594c0.594,0,0.973-0.233,1.17-0.72
		c0.216-0.504,0.27-0.99,0.27-2.125C35.859,206.068,35.842,205.727,35.751,205.33z"/>
</g>
<g>
	<path class="st0" d="M42.806,207.761v0.072c0,1.423,0.702,2.232,1.945,2.232c0.828,0,1.603-0.306,2.341-0.918l0.936,1.44
		c-1.062,0.864-2.179,1.278-3.475,1.278c-2.646,0-4.357-1.872-4.357-4.771c0-1.656,0.342-2.755,1.152-3.655
		c0.756-0.846,1.675-1.242,2.899-1.242c1.062,0,2.071,0.36,2.665,0.973c0.846,0.864,1.224,2.106,1.224,4.033v0.558H42.806z
		 M45.633,205.889c0-0.685-0.072-1.044-0.288-1.387c-0.234-0.36-0.576-0.54-1.062-0.54c-0.918,0-1.44,0.721-1.44,1.999v0.036h2.791
		V205.889z"/>
</g>
<g>
	<path class="st0" d="M57.514,204.088c-0.234,0-0.486-0.036-0.63-0.054c0.36,0.432,0.541,0.9,0.541,1.513
		c0,1.584-1.44,2.736-3.403,2.736c-0.108,0-0.18,0-0.36-0.018c-0.612,0.288-0.955,0.504-0.955,0.756
		c0,0.126,0.144,0.216,0.397,0.216l1.296,0.018c1.404,0.018,2.142,0.233,2.791,0.828c0.54,0.504,0.792,1.134,0.792,1.962
		c0,0.774-0.234,1.369-0.738,1.909c-0.811,0.864-2.197,1.189-3.637,1.189c-1.315,0-2.665-0.217-3.493-0.99
		c-0.504-0.469-0.756-1.009-0.756-1.639c0-0.504,0.126-0.756,0.216-0.936h2.233c-0.09,0.216-0.108,0.342-0.108,0.595
		c0,0.738,0.612,1.134,1.729,1.134c0.612,0,1.135-0.072,1.513-0.306c0.36-0.217,0.594-0.559,0.594-0.936
		c0-0.828-0.738-1.08-1.693-1.099l-1.026-0.018c-1.081-0.019-1.783-0.108-2.215-0.288c-0.432-0.162-0.702-0.576-0.702-1.206
		c0-0.595,0.18-1.152,1.692-1.549c-1.332-0.342-1.98-1.188-1.98-2.557c0-1.891,1.53-3.115,3.889-3.115
		c0.522,0,0.99,0.072,1.656,0.234c0.504,0.126,0.829,0.198,1.135,0.198c0.666,0,1.35-0.288,1.908-0.793l1.008,1.53
		C58.685,203.89,58.18,204.088,57.514,204.088z M53.481,203.998c-0.918,0-1.44,0.504-1.44,1.368c0,0.936,0.576,1.314,1.422,1.314
		c0.954,0,1.477-0.468,1.477-1.314C54.939,204.502,54.399,203.998,53.481,203.998z"/>
</g>
<g>
	<path class="st0" d="M61.688,201.352c-0.81,0-1.476-0.667-1.476-1.495c0-0.828,0.684-1.494,1.512-1.494
		c0.81,0,1.458,0.666,1.458,1.494C63.183,200.685,62.517,201.352,61.688,201.352z M60.482,211.614v-9.057l2.413-0.378v9.435H60.482z
		"/>
</g>
<g>
	<path class="st0" d="M70.365,211.614v-5.996c0-1.044-0.18-1.35-0.811-1.35c-0.486,0-1.116,0.323-1.674,0.828v6.518h-2.413v-6.68
		c0-0.793-0.108-1.549-0.324-2.161l2.143-0.612c0.216,0.379,0.342,0.774,0.342,1.152c0.36-0.252,0.666-0.468,1.062-0.684
		c0.486-0.252,1.116-0.396,1.657-0.396c1.026,0,1.926,0.54,2.214,1.332c0.126,0.343,0.18,0.738,0.18,1.314v6.734H70.365z"/>
</g>
<g>
	<path class="st0" d="M80.193,211.614v-5.996c0-1.044-0.18-1.35-0.811-1.35c-0.486,0-1.116,0.323-1.674,0.828v6.518h-2.413v-6.68
		c0-0.793-0.108-1.549-0.324-2.161l2.143-0.612c0.216,0.379,0.342,0.774,0.342,1.152c0.36-0.252,0.666-0.468,1.062-0.684
		c0.486-0.252,1.116-0.396,1.657-0.396c1.026,0,1.926,0.54,2.214,1.332c0.126,0.343,0.18,0.738,0.18,1.314v6.734H80.193z"/>
</g>
<g>
	<path class="st0" d="M87.842,211.83c-1.224,0-2.197-0.54-2.485-1.35c-0.144-0.396-0.162-0.576-0.162-1.422v-5.006h-0.919v-1.656
		h0.919c0-0.9,0-1.494,0.09-2.179l2.449-0.612c-0.09,0.847-0.144,1.854-0.144,2.791h2.161l-0.612,1.656H87.59v4.628
		c0,1.17,0.216,1.477,1.044,1.477c0.216,0,0.432-0.055,0.864-0.181l0.306,1.44C89.103,211.704,88.473,211.83,87.842,211.83z"/>
</g>
<g>
	<path class="st0" d="M105.143,211.614v-6.086c0-1.099-0.126-1.314-0.756-1.314c-0.45,0-1.081,0.307-1.603,0.774v6.626h-2.287
		v-5.996c0-1.152-0.162-1.422-0.828-1.422c-0.45,0-1.062,0.233-1.585,0.702v6.716h-2.358v-6.428c0-1.333-0.09-1.909-0.342-2.359
		l2.179-0.594c0.162,0.252,0.234,0.468,0.324,0.936c0.63-0.612,1.404-0.936,2.251-0.936c0.756,0,1.386,0.252,1.872,0.756
		c0.126,0.127,0.252,0.288,0.36,0.45c0.846-0.864,1.602-1.206,2.61-1.206c0.72,0,1.405,0.216,1.819,0.576
		c0.522,0.45,0.684,0.99,0.684,2.251v6.554H105.143z"/>
</g>
<g>
	<path class="st0" d="M111.26,201.352c-0.81,0-1.476-0.667-1.476-1.495c0-0.828,0.684-1.494,1.512-1.494
		c0.81,0,1.459,0.666,1.459,1.494C112.755,200.685,112.089,201.352,111.26,201.352z M110.054,211.614v-9.057l2.413-0.378v9.435
		H110.054z"/>
</g>
<g>
	<path class="st0" d="M117.741,211.83c-1.224,0-2.197-0.54-2.485-1.35c-0.144-0.396-0.162-0.576-0.162-1.422v-5.006h-0.919v-1.656
		h0.919c0-0.9,0-1.494,0.09-2.179l2.449-0.612c-0.09,0.847-0.144,1.854-0.144,2.791h2.161l-0.612,1.656h-1.548v4.628
		c0,1.17,0.216,1.477,1.045,1.477c0.216,0,0.432-0.055,0.864-0.181l0.306,1.44C119.001,211.704,118.371,211.83,117.741,211.83z"/>
</g>
<g>
	<path class="st0" d="M131.602,211.866c-0.306-0.216-0.558-0.523-0.72-0.9c-0.594,0.576-1.458,0.883-2.431,0.883
		c-1.296,0-2.413-0.612-2.719-1.495c-0.144-0.414-0.198-0.899-0.198-1.836v-5.906l2.377-0.45v5.924c0,0.828,0.072,1.261,0.198,1.513
		c0.126,0.252,0.486,0.433,0.847,0.433c0.594,0,1.314-0.433,1.494-0.883v-6.481l2.305-0.486v7.04c0,0.612,0.198,1.242,0.558,1.674
		L131.602,211.866z"/>
</g>
<g>
	<path class="st0" d="M140.296,211.614v-5.996c0-1.044-0.18-1.35-0.811-1.35c-0.486,0-1.116,0.323-1.674,0.828v6.518h-2.413v-6.68
		c0-0.793-0.108-1.549-0.324-2.161l2.143-0.612c0.216,0.379,0.342,0.774,0.342,1.152c0.36-0.252,0.666-0.468,1.062-0.684
		c0.486-0.252,1.117-0.396,1.657-0.396c1.026,0,1.926,0.54,2.214,1.332c0.126,0.343,0.18,0.738,0.18,1.314v6.734H140.296z"/>
</g>
<g>
	<path class="st0" d="M148.161,211.902c-1.134,0-2.376-0.36-3.727-1.062l0.864-1.765c0.738,0.45,2.017,1.045,3.061,1.045
		c0.684,0,1.224-0.45,1.224-1.045c0-0.63-0.45-0.954-1.422-1.134l-1.08-0.198c-0.612-0.108-1.369-0.54-1.692-0.936
		c-0.324-0.396-0.522-1.062-0.522-1.656c0-1.801,1.422-3.007,3.565-3.007c1.477,0,2.449,0.45,3.295,0.864l-0.792,1.62
		c-0.918-0.468-1.585-0.666-2.269-0.666c-0.702,0-1.17,0.36-1.17,0.9c0,0.468,0.306,0.72,1.152,0.936l1.116,0.288
		c1.134,0.288,1.513,0.63,1.837,1.044c0.342,0.433,0.504,0.954,0.504,1.566C152.104,210.606,150.52,211.902,148.161,211.902z"/>
</g>
<g>
	<path class="st0" d="M155.414,211.902c-0.882,0-1.585-0.72-1.585-1.602c0-0.864,0.702-1.566,1.567-1.566
		c0.882,0,1.602,0.702,1.602,1.566C156.999,211.183,156.278,211.902,155.414,211.902z"/>
</g>
<g>
	<rect x="29.432" y="29.432" class="st1" width="84.761" height="133.763"/>
	<rect x="32.081" y="32.081" class="st2" width="79.463" height="79.463"/>
	<rect x="32.081" y="111.544" class="st0" width="79.463" height="49.002"/>
	<path class="st0" d="M66.811,103.068H37.38v-8.445c0-2.11,0.283-3.989,0.843-5.584c0.569-1.614,1.455-2.98,2.638-4.059
		c1.179-1.075,2.691-1.892,4.495-2.427c1.782-0.526,3.927-0.795,6.377-0.795c2.248,0,4.32,0.269,6.156,0.795
		c1.86,0.534,3.469,1.379,4.785,2.513c1.321,1.138,2.353,2.612,3.066,4.382c0.71,1.758,1.071,3.882,1.071,6.319V103.068z
		 M42.698,97.151h18.794v-1.842c0-2.367-0.746-4.184-2.218-5.399c-1.496-1.235-3.915-1.861-7.189-1.861
		c-1.514,0-2.881,0.116-4.064,0.347c-1.152,0.224-2.139,0.604-2.93,1.133c-0.772,0.515-1.37,1.219-1.773,2.088
		c-0.411,0.884-0.619,2.006-0.619,3.342V97.151z"/>
	<path class="st0" d="M66.811,82.675L37.38,73.919v-8.175l29.432-8.76v6.835l-5.651,1.585v9.43l5.651,1.629V82.675z M44.522,70.053
		l11.428,3.25V66.84L44.522,70.053z"/>
	<polygon class="st0" points="37.379,61.294 37.379,40.027 42.676,40.027 42.676,47.203 66.811,47.203 66.811,53.557 42.676,53.557 
		42.676,59.789 	"/>
	<path class="st0" d="M106.247,65.456L106.247,65.456c0-1.46-1.187-2.649-2.649-2.649l0-14.833c0-2.633-2.135-4.768-4.768-4.768
		c-1.048,0-2.017,0.339-2.804,0.913c-0.534-2.049-2.396-3.561-4.612-3.561c-2.633,0-4.768,2.135-4.768,4.768v15.637
		c-0.758-0.507-1.669-0.803-2.649-0.803c-2.38,0-4.352,1.744-4.71,4.024c-0.769-0.532-1.701-0.845-2.707-0.845
		c-2.633,0-4.768,2.135-4.768,4.768l0,12.184h0c0,0.002,0,0.004,0,0.005c0.001,0.155,0.025,3.834,0.549,6.552
		c0.338,1.753,0.673,2.677,0.968,3.491c0.045,0.124,0.089,0.246,0.133,0.369c1.02,2.887,4.21,11.579,4.242,11.667
		c0.157,0.429,0.563,0.695,0.995,0.695c0.121,0,0.245-0.021,0.365-0.065c0.549-0.202,0.831-0.81,0.629-1.36
		c-0.032-0.087-3.218-8.767-4.233-11.642c-0.045-0.128-0.092-0.256-0.139-0.386c-0.282-0.777-0.573-1.581-0.88-3.17
		c-0.486-2.522-0.51-6.126-0.511-6.162c0-0.001,0-0.001,0-0.002v-0.796c0.758,0.507,1.669,0.803,2.649,0.803
		c1.498,0,2.834-0.692,3.708-1.772c0.874,1.081,2.21,1.772,3.708,1.772c2.633,0,4.768-2.135,4.768-4.768l0-30.2
		c0.002-1.461,1.187-2.645,2.649-2.645c1.462,0,2.647,1.184,2.649,2.645v23.843c0,0.585,0.474,1.059,1.06,1.059
		c0.585,0,1.06-0.474,1.06-1.059V47.97c0.002-1.461,1.187-2.645,2.649-2.645c1.463,0,2.649,1.186,2.649,2.649l0,15.27
		c-2.168,0.927-3.708,3.23-3.708,5.92c0,0,0,9.295,0,9.295c-2.522,0.868-4.423,2.119-5.791,3.813
		c-1.519,1.881-2.396,4.32-2.681,7.457c-0.053,0.583,0.377,1.098,0.959,1.151c0.033,0.003,0.065,0.004,0.097,0.004
		c0.542,0,1.004-0.414,1.054-0.964c0.482-5.303,2.792-8.196,7.725-9.676c0.459-0.138,0.755-0.559,0.755-1.015l0-10.065
		c0-2.337,1.66-4.238,3.708-4.238c0.291,0,0.53,0.238,0.53,0.53l0,20.131c0,0.32-0.057,0.628-0.161,0.912l-5.6,15.143
		c-0.203,0.549,0.077,1.158,0.626,1.361c0.121,0.045,0.245,0.066,0.367,0.066c0.431,0,0.836-0.265,0.994-0.692
		c0,0,5.603-15.148,5.604-15.152c0.187-0.511,0.289-1.062,0.289-1.638L106.247,65.456z M79.229,75.525
		c-0.002,1.461-1.187,2.645-2.649,2.645c-1.463,0-2.649-1.186-2.649-2.649v-7.417v0c0-1.463,1.186-2.649,2.649-2.649
		c1.462,0,2.647,1.184,2.649,2.645V75.525z M86.646,75.521c0,1.463-1.186,2.649-2.649,2.649s-2.649-1.186-2.649-2.649V64.926
		c0-1.463,1.186-2.649,2.649-2.649s2.649,1.186,2.649,2.649V75.521z"/>
	<path class="st2" d="M56.003,145.902c-0.037,0-0.045,0-6.461-0.465l-0.034-0.003c-0.507-0.037-1.201-0.088-1.733-0.627
		c-0.47-0.476-0.664-1.033-0.629-1.804c0.045-0.997,0.153-2.447,0.231-3.386c0.044-0.534,0.14-1.1,0.767-1.638
		c0.504-0.432,1.103-0.482,1.509-0.482c0.175,0,0.346,0.01,0.505,0.022l4.582,0.344c0.005,0,0.009,0.001,0.014,0.001l0.072,0.006
		c0.33,0.027,0.945,0.078,1.433,0.484c0.393,0.328,0.556,0.72,0.699,1.066l0.022,0.053c0.328,0.788,0.714,1.799,1.215,3.181
		c0.336,0.928,0.253,1.81-0.228,2.418C57.385,145.807,56.611,145.902,56.003,145.902L56.003,145.902z M49.653,138.955
		c-0.362,0-0.49,0.07-0.561,0.131c-0.191,0.164-0.231,0.262-0.263,0.652c-0.077,0.926-0.183,2.354-0.227,3.331
		c-0.02,0.446,0.07,0.573,0.211,0.715c0.137,0.139,0.395,0.168,0.802,0.197l0.034,0.002c2.097,0.152,6.041,0.437,6.378,0.461
		c0.489-0.003,0.659-0.1,0.799-0.277c0.187-0.236,0.117-0.696,0.001-1.017c-0.492-1.36-0.87-2.35-1.19-3.117l-0.023-0.055
		c-0.111-0.268-0.174-0.412-0.286-0.505c-0.133-0.111-0.438-0.136-0.62-0.151c-0.029-0.002-0.057-0.005-0.082-0.007l-4.573-0.343
		C49.922,138.964,49.782,138.955,49.653,138.955L49.653,138.955z"/>
	<path class="st2" d="M94.993,154.506h-0.054c-1.936,0-4.061-0.009-4.778-0.123c-0.97-0.153-1.597-0.734-1.766-1.635
		c-0.064-0.34-0.165-1.186-0.236-1.804c-1.573,0.103-5.42,0.348-7.433,0.432c-2.694,0.112-6.834,0.163-8.913,0.163
		c-2.079,0-6.219-0.05-8.913-0.163c-2.012-0.084-5.86-0.33-7.433-0.432c-0.071,0.618-0.172,1.464-0.236,1.804
		c-0.169,0.901-0.796,1.482-1.766,1.635c-0.717,0.113-2.842,0.123-4.778,0.123h-0.054c-1.877,0-3.161-0.047-3.756-0.284
		c-0.745-0.296-1.191-0.86-1.328-1.678c-0.085-0.511-0.104-1.76-0.124-3.757c-0.018-1.743-0.02-6.979,0.058-9.211
		c0.075-2.158,0.629-4.576,1.112-5.909c0.205-0.567,0.523-1.177,0.802-1.664c-0.759-0.136-1.667-0.3-1.821-0.334
		c-0.026-0.006-0.056-0.011-0.088-0.018c-0.413-0.081-1.511-0.294-1.732-1.623c-0.065-0.39-0.002-0.936,0.068-1.461l0.004-0.033
		c0.255-1.914,1.451-2.2,2.142-2.2c0.047,0,0.096,0.001,0.146,0.004c0.312,0.017,1,0.041,1.728,0.067
		c0.891,0.031,1.9,0.067,2.455,0.098c0.217,0.012,0.368,0.017,0.49,0.017c0.488,0,0.488,0,1.035-1.05
		c0.036-0.069,0.116-0.226,0.221-0.43c0.252-0.492,0.634-1.235,0.903-1.747c0.429-0.815,1.077-2.046,2.261-3.183
		c1.082-1.038,2.46-1.67,4.213-1.932c1.681-0.251,5.796-0.435,7.998-0.466c1.681-0.024,4.746-0.063,6.393-0.063
		c1.647,0,4.712,0.04,6.393,0.063c2.201,0.031,6.316,0.215,7.997,0.466c1.754,0.262,3.132,0.894,4.213,1.932
		c1.185,1.137,1.833,2.369,2.261,3.183c0.269,0.511,0.651,1.255,0.903,1.747c0.105,0.205,0.185,0.361,0.221,0.43
		c0.545,1.047,0.547,1.05,1.031,1.05c0.001,0,0.003,0,0.004,0c0.122,0,0.273-0.005,0.49-0.017c0.555-0.03,1.564-0.066,2.455-0.098
		c0.728-0.026,1.416-0.05,1.728-0.067c0.05-0.003,0.099-0.004,0.146-0.004c0.69,0,1.886,0.286,2.142,2.2l0.005,0.035
		c0.07,0.525,0.133,1.071,0.068,1.46c-0.221,1.329-1.319,1.543-1.732,1.623c-0.032,0.006-0.061,0.012-0.088,0.018
		c-0.154,0.034-1.062,0.198-1.821,0.334c0.279,0.487,0.597,1.098,0.802,1.664c0.483,1.333,1.037,3.751,1.112,5.909
		c0.078,2.233,0.076,7.469,0.058,9.211c-0.021,1.997-0.039,3.246-0.124,3.757c-0.136,0.818-0.583,1.383-1.328,1.678
		C98.154,154.459,96.87,154.506,94.993,154.506L94.993,154.506z M88.806,149.443c0.369,0,0.683,0.278,0.724,0.65
		c0.057,0.527,0.222,1.984,0.297,2.387c0.04,0.212,0.109,0.393,0.562,0.464c0.664,0.105,3.289,0.105,4.551,0.105h0.054
		c1.833,0,2.916-0.061,3.219-0.181c0.271-0.108,0.375-0.245,0.428-0.564c0.073-0.436,0.09-2.153,0.105-3.533
		c0.018-1.733,0.02-6.934-0.057-9.146c-0.074-2.136-0.654-4.438-1.025-5.464c-0.366-1.011-1.209-2.271-1.217-2.284
		c-0.137-0.204-0.162-0.464-0.066-0.691c0.096-0.227,0.301-0.389,0.543-0.432c0.997-0.177,2.643-0.471,2.812-0.509
		c0.038-0.008,0.08-0.017,0.125-0.026c0.414-0.081,0.525-0.14,0.574-0.433c0.034-0.207-0.045-0.803-0.075-1.028l-0.005-0.035
		c-0.125-0.936-0.469-0.936-0.698-0.936c-0.022,0-0.045,0.001-0.068,0.002c-0.326,0.018-0.988,0.041-1.755,0.068
		c-0.884,0.031-1.886,0.067-2.427,0.096c-0.248,0.014-0.418,0.019-0.569,0.019c-1.372,0-1.711-0.652-2.327-1.834
		c-0.037-0.07-0.118-0.23-0.225-0.438c-0.251-0.489-0.63-1.229-0.896-1.733c-0.408-0.775-0.967-1.837-1.981-2.811
		c-0.856-0.822-1.975-1.327-3.42-1.542c-1.619-0.242-5.641-0.42-7.803-0.45c-1.677-0.024-4.735-0.063-6.373-0.063
		c-1.638,0-4.696,0.04-6.373,0.063c-2.162,0.03-6.184,0.208-7.803,0.45c-1.445,0.216-2.563,0.72-3.42,1.542
		c-1.014,0.974-1.573,2.035-1.981,2.811c-0.266,0.505-0.645,1.244-0.896,1.733c-0.107,0.208-0.189,0.367-0.225,0.438
		c-0.616,1.183-0.955,1.834-2.327,1.834c-0.151,0-0.322-0.006-0.569-0.019c-0.541-0.03-1.543-0.065-2.427-0.096
		c-0.767-0.027-1.429-0.05-1.755-0.068c-0.023-0.001-0.046-0.002-0.068-0.002c-0.228,0-0.573,0-0.698,0.936l-0.004,0.033
		c-0.03,0.225-0.11,0.822-0.075,1.029c0.049,0.293,0.159,0.352,0.574,0.433c0.045,0.009,0.088,0.017,0.125,0.026
		c0.17,0.038,1.815,0.332,2.812,0.509c0.242,0.043,0.447,0.206,0.543,0.432c0.096,0.227,0.072,0.487-0.066,0.691
		c-0.008,0.012-0.853,1.277-1.217,2.284c-0.372,1.026-0.951,3.327-1.026,5.464c-0.077,2.211-0.075,7.413-0.057,9.146
		c0.014,1.38,0.032,3.097,0.105,3.533c0.053,0.319,0.157,0.456,0.428,0.564c0.303,0.12,1.386,0.181,3.219,0.181h0.054
		c1.261,0,3.886,0,4.551-0.105c0.452-0.071,0.522-0.252,0.562-0.464c0.076-0.403,0.24-1.859,0.297-2.387
		c0.042-0.388,0.383-0.673,0.773-0.648c0.055,0.004,5.554,0.37,8.092,0.476c2.673,0.111,6.786,0.162,8.853,0.162
		c2.067,0,6.179-0.05,8.853-0.162c2.538-0.106,8.036-0.472,8.092-0.476C88.773,149.444,88.79,149.443,88.806,149.443L88.806,149.443
		z"/>
	<path class="st2" d="M71.813,145.196c-0.884,0-2.094,0-3.682-0.019c-1.57-0.019-5.578-0.114-5.619-0.115
		c-0.402-0.009-0.72-0.343-0.711-0.745c0.009-0.396,0.334-0.711,0.728-0.711c0.006,0,0.012,0,0.018,0
		c0.04,0.001,4.04,0.096,5.602,0.114c1.579,0.019,2.785,0.019,3.665,0.019c0.88,0,2.085,0,3.665-0.019
		c1.561-0.019,5.561-0.113,5.602-0.114c0.006,0,0.012,0,0.018,0c0.394,0,0.718,0.315,0.728,0.711
		c0.01,0.402-0.309,0.736-0.711,0.745c-0.04,0.001-4.049,0.096-5.619,0.115C73.907,145.196,72.696,145.196,71.813,145.196
		L71.813,145.196z"/>
	<path class="st2" d="M88.829,130.061c-0.278,0-0.644-0.032-1.151-0.075c-0.388-0.033-0.871-0.075-1.459-0.115
		c-1.413-0.096-5.419-0.304-8.038-0.361c-2.626-0.057-5.06-0.057-6.367-0.057c-1.308,0-3.742,0-6.367,0.057
		c-2.62,0.057-6.626,0.265-8.038,0.361c-0.588,0.04-1.071,0.081-1.459,0.115c-0.507,0.044-0.873,0.075-1.151,0.075
		c-0.24,0-0.877,0-1.162-0.572c-0.272-0.543-0.014-0.997,0.838-2.501c0.105-0.185,0.219-0.386,0.342-0.605
		c1.103-1.96,1.968-3.174,3.125-3.575c0.892-0.309,3.412-0.424,7.155-0.562l0.308-0.011c3.249-0.121,5.565-0.134,6.41-0.134
		c0.845,0,3.161,0.013,6.41,0.134c3.813,0.142,6.58,0.266,7.464,0.574c1.158,0.404,2.022,1.616,3.124,3.575
		c0.123,0.219,0.238,0.42,0.342,0.605c0.853,1.504,1.11,1.958,0.838,2.501C89.705,130.061,89.069,130.061,88.829,130.061
		L88.829,130.061z M71.813,123.556c-0.837,0-3.131,0.013-6.356,0.133l-0.308,0.011c-2.664,0.099-5.979,0.222-6.732,0.483
		c-0.62,0.215-1.274,1.032-2.333,2.913c-0.124,0.221-0.239,0.424-0.345,0.61c-0.179,0.316-0.354,0.623-0.489,0.875
		c0.163-0.012,0.354-0.029,0.572-0.047c0.394-0.034,0.884-0.076,1.486-0.117c1.424-0.097,5.464-0.307,8.105-0.364
		c2.641-0.057,5.086-0.057,6.399-0.057s3.758,0,6.399,0.057c2.642,0.057,6.681,0.267,8.105,0.364
		c0.601,0.041,1.092,0.083,1.486,0.117c0.219,0.019,0.41,0.035,0.573,0.047c-0.136-0.251-0.31-0.559-0.489-0.875
		c-0.106-0.186-0.221-0.389-0.345-0.61c-1.057-1.88-1.712-2.697-2.334-2.913c-0.746-0.26-4.533-0.401-7.039-0.494
		C74.944,123.569,72.649,123.556,71.813,123.556L71.813,123.556z"/>
	<path class="st2" d="M87.622,145.902c-0.609,0-1.382-0.094-1.964-0.83c-0.481-0.608-0.564-1.489-0.228-2.417
		c0.501-1.383,0.887-2.394,1.215-3.181l0.022-0.053c0.144-0.346,0.306-0.738,0.699-1.066c0.487-0.406,1.102-0.457,1.433-0.484
		l0.072-0.006c0.004,0,0.009-0.001,0.013-0.001l4.58-0.343c0.162-0.012,0.333-0.022,0.508-0.022c0.407,0,1.006,0.05,1.509,0.482
		c0.627,0.537,0.723,1.103,0.767,1.638c0.078,0.94,0.186,2.391,0.231,3.386c0.035,0.771-0.159,1.327-0.629,1.804
		c-0.532,0.539-1.226,0.59-1.733,0.627l-0.033,0.002C87.668,145.902,87.659,145.902,87.622,145.902L87.622,145.902z M89,139.316
		c-0.025,0.002-0.053,0.005-0.082,0.007c-0.182,0.015-0.486,0.04-0.62,0.151c-0.112,0.093-0.175,0.237-0.286,0.505l-0.023,0.055
		c-0.319,0.765-0.697,1.755-1.19,3.116c-0.116,0.322-0.186,0.781,0.001,1.017c0.14,0.177,0.31,0.274,0.799,0.277
		c0.337-0.023,4.281-0.309,6.379-0.461l0.033-0.002c0.408-0.03,0.665-0.058,0.802-0.197c0.14-0.142,0.231-0.269,0.211-0.715
		c-0.044-0.975-0.15-2.404-0.227-3.331c-0.032-0.391-0.072-0.488-0.263-0.652c-0.071-0.061-0.199-0.131-0.561-0.131
		c-0.129,0-0.269,0.009-0.401,0.018L89,139.316L89,139.316z"/>
</g>
</svg>
