<?xml version="1.0" encoding="UTF-8"?>
<svg width="180px" height="44px" viewBox="0 0 180 44" version="1.1" xmlns="http://www.w3.org/2000/svg" xmlns:xlink="http://www.w3.org/1999/xlink">
    <!-- Generator: Sketch 49.3 (51167) - http://www.bohemiancoding.com/sketch -->
    <title>Logo</title>
    <desc>Created with Sketch.</desc>
    <defs></defs>
    <g id="Symbols" stroke="none" stroke-width="1" fill="none" fill-rule="evenodd">
        <g id="Navigtion-aktiv-Spielbetrieb" fill="#FFFFFF">
            <g id="Navigtion-unaktiv">
                <path d="M45.3609715,0 C39.9669817,0 35.0155229,1.90294581 31.1575273,5.06393472 L32.7177064,9.28426147 L32.7972076,9.28426147 C36.0433783,6.15503491 40.4753778,4.22159724 45.3609715,4.22159724 C50.2622597,4.22159724 54.7099535,6.16824805 57.96127,9.31704021 C54.4472651,10.718395 51.5803331,13.5327932 50.2267543,17.1742829 C50.2267543,17.1742829 45.42272,30.1965916 45.3969915,30.2448704 C45.3329274,30.1173128 41.5528893,19.8448611 39.2079896,13.4743505 L34.2488122,13.4743505 C37.0424178,21.0414123 40.4882421,30.3945346 40.6796624,30.9723552 C41.9002247,34.7340336 44.3215382,35.1990344 45.3674036,35.2150426 L45.3674036,35.2163131 C45.3758941,35.2163131 45.3864428,35.2150426 45.3969915,35.2150426 C45.4062538,35.2150426 45.4170597,35.2163131 45.4265793,35.2163131 L45.4265793,35.2150426 C46.4729593,35.1990344 48.8924718,34.7340336 50.1099467,30.9781995 C50.1788992,30.7718713 54.606782,18.7588429 54.606782,18.7588429 C55.6570213,15.9312316 58.0930001,13.8575314 60.9820586,13.1803582 C62.4964409,15.7820756 63.3640075,18.7926381 63.3640075,22.0013975 C63.3640075,31.805291 55.2885885,39.7804355 45.3609715,39.7804355 C44.8559201,39.7804355 44.3560145,39.7552798 43.8609972,39.7136076 L45.4466476,44 C57.6903484,43.953754 67.6390628,34.104631 67.6390628,22.0013975 C67.6390628,9.86945097 57.6442943,0 45.3609715,0 Z M15.4113995,19.9386236 C15.4113995,21.5203885 14.8060068,23.0970715 13.7508791,24.2801555 C14.8060068,25.4609525 15.4113995,27.0361109 15.4113995,28.6188922 C15.4113995,32.1831359 12.5534725,35.0841818 9.0410113,35.0841818 L0,35.0841818 L0,13.4743505 L9.0410113,13.4743505 C12.5534725,13.4743505 15.4113995,16.3733635 15.4113995,19.9386236 Z M9.01193805,30.7187646 C10.1151781,30.7187646 11.0141335,29.7557302 11.0141335,28.5716299 C11.0141335,27.3895623 10.1151781,26.4272902 9.01193805,26.4272902 L4.42325175,26.4272902 L4.42325175,30.7187646 L9.01193805,30.7187646 Z M9.01193805,22.0842337 C10.1151781,22.0842337 11.0141335,21.1217075 11.0141335,19.9391318 C11.0141335,18.7555396 10.1151781,17.7925052 9.01193805,17.7925052 L4.42325175,17.7925052 L4.42325175,22.0842337 L9.01193805,22.0842337 Z M32.7279978,17.7942839 L27.1868407,17.7942839 L27.1868407,35.0841818 L22.8026964,35.0841818 L22.8026964,17.7942839 L17.2592237,17.7942839 L17.2592237,13.4743505 L32.7279978,13.4743505 L32.7279978,17.7942839 Z M154.269138,20.6772888 L155.821856,20.6772888 L154.530025,17.2446683 C154.590745,17.1928321 154.648377,17.1389632 154.702406,17.0815368 L154.700348,17.0756926 L154.741257,17.0347827 C155.045111,16.6937821 155.234473,16.2531748 155.278211,15.8024035 C155.278211,15.7759773 155.28027,15.7523461 155.28027,15.7276985 C155.284129,15.6845017 155.289532,15.646641 155.289532,15.6070016 C155.289532,15.5650753 155.284129,15.5249277 155.28027,15.4863047 C155.28027,15.4624194 155.278211,15.4375177 155.278211,15.4138865 C155.234473,14.9620989 155.045111,14.5207293 154.741257,14.1812533 L154.700348,14.1327204 L154.702406,14.1319581 C154.324454,13.727941 153.785956,13.4748587 153.192655,13.4748587 L150.194508,13.4766373 L150.194508,20.6772888 L151.662836,20.6772888 L151.662836,17.740415 L153.165126,17.740415 L154.269138,20.6772888 Z M151.662836,14.8017625 L153.1695,14.8017625 C153.583729,14.8017625 153.918972,15.1569926 153.918972,15.597854 L153.918972,15.600395 L153.918972,15.6052229 C153.918972,16.0440515 153.583729,16.4018226 153.1695,16.4018226 L151.662836,16.4018226 L151.662836,14.8017625 Z M102.991115,14.8020166 L102.991115,13.4751128 L98.2807327,13.4751128 L98.2807327,20.6757642 L102.991115,20.6757642 L102.991115,19.3463193 L99.7529202,19.3463193 L99.7529202,17.7406691 L101.922351,17.7406691 L101.922351,16.4112242 L99.7529202,16.4112242 L99.7529202,14.8020166 L102.991115,14.8020166 Z M130.376837,19.052327 C130.362172,19.0604582 130.345449,19.0660484 130.331041,19.0734172 C130.032075,19.2225732 129.697347,19.3148111 129.341006,19.3209094 C128.097545,19.2960078 127.089758,18.2923176 127.089758,17.074168 C127.089758,15.8560184 128.096259,14.8528364 129.341006,14.8276806 C129.709182,14.8350495 130.05909,14.931607 130.366803,15.0919433 L130.838665,13.8130641 C130.3861,13.6057195 129.884908,13.4837521 129.355157,13.4746046 L129.345123,13.4746046 L129.334574,13.4746046 L129.323768,13.4746046 C127.33418,13.509162 125.719199,15.1239598 125.719199,17.074168 C125.719199,19.023868 127.33418,20.6373953 129.323768,20.675256 L129.334574,20.675256 L129.345123,20.675256 L129.355157,20.675256 C129.484314,20.672715 129.6127,20.6645838 129.738255,20.6480674 C130.129843,20.5990263 130.503936,20.4895098 130.848699,20.3299357 L130.376837,19.052327 Z M79.4356014,17.074168 L79.4783108,17.0302089 C79.8248744,16.6427082 80.0252997,16.1223139 80.0252997,15.602936 C80.0252997,14.4312865 79.0854359,13.4743505 77.9315106,13.4743505 L74.9323339,13.4743505 L74.9323339,20.6757642 L77.9315106,20.6757642 C79.0854359,20.6757642 80.0252997,19.7206068 80.0252997,18.5471786 C80.0252997,18.0298335 79.8248744,17.5086769 79.4783108,17.1199058 L79.4356014,17.074168 Z M77.9088695,19.3320898 L76.4011767,19.3320898 L76.4011767,19.0269171 L76.4011767,17.9846039 L76.4011767,17.7406691 L77.9088695,17.7406691 C78.3241282,17.7406691 78.6542255,18.0966615 78.6542255,18.5334573 C78.6542255,18.975081 78.3241282,19.3320898 77.9088695,19.3320898 Z M77.9088695,16.3990275 L76.4011767,16.3990275 L76.4011767,14.9666726 L76.4011767,14.8114183 L77.9088695,14.8114183 C78.3241282,14.8114183 78.6542255,15.1643615 78.6542255,15.602936 C78.6542255,16.0437974 78.3241282,16.3990275 77.9088695,16.3990275 Z M94.192724,13.4746046 L92.8736214,16.9829465 L91.5532324,13.478416 L89.9971699,13.478416 L92.1020223,19.0642697 L91.4974014,20.6716986 L93.0516629,20.6716986 L95.7487865,13.4746046 L94.192724,13.4746046 Z M137.594209,13.4746046 L137.594209,16.4135111 L134.518876,16.4135111 L134.518876,13.4746046 L133.047975,13.4746046 L133.047975,20.675256 L134.518876,20.675256 L134.518876,17.740415 L137.594209,17.740415 L137.594209,20.675256 L139.066397,20.675256 L139.066397,13.4746046 L137.594209,13.4746046 Z M121.222878,20.6755101 C122.892403,20.6755101 123.651395,19.5960984 123.651395,18.5891049 C123.651395,17.298029 122.481518,16.8411594 121.542426,16.4760194 C120.851358,16.2092157 120.306684,16.0000924 120.306684,15.5142555 C120.306684,14.9867464 120.799901,14.7511969 121.284369,14.7511969 C121.916777,14.7511969 122.467625,15.0390908 122.78177,15.2436403 L123.241025,14.0026218 C122.911185,13.7899412 122.262054,13.4748587 121.307525,13.4748587 C119.894513,13.4748587 118.868716,14.3395568 118.868716,15.5307719 C118.868716,16.798979 120.049656,17.2820208 120.997238,17.6730788 C121.651515,17.9381038 122.211883,18.170096 122.211883,18.6297607 C122.211883,19.1016222 121.83213,19.4065407 121.244233,19.4065407 C120.710365,19.4065407 120.217149,19.1806469 119.894513,18.9913433 C119.883707,18.9819417 119.629509,18.8340562 119.339805,18.5946951 L118.860225,19.8944104 C118.930464,19.9409105 118.998645,19.9853778 119.069141,20.0273041 C119.503954,20.3251078 120.233872,20.6755101 121.222878,20.6755101 Z M114.563558,20.6757642 L116.035746,20.6757642 L116.035746,13.4751128 L114.563558,13.4751128 L114.563558,20.6757642 Z M87.3275759,20.6755101 L88.8761771,20.6755101 C88.5532838,19.803443 86.4890825,14.211491 86.2197046,13.4748587 L84.4079004,13.4748587 C84.1364642,14.211491 82.0748358,19.803443 81.7545154,20.6755101 L83.3002864,20.6755101 C83.3846761,20.4419933 83.6113446,19.8349513 83.8951304,19.0642697 L86.7360766,19.0642697 C87.0180614,19.8349513 87.2411279,20.4419933 87.3275759,20.6755101 Z M84.3852593,17.7251691 C84.698633,16.8777496 85.0307885,15.9802727 85.3127734,15.2113698 C85.5973311,15.9802727 85.9300012,16.8777496 86.2415739,17.7251691 L84.3852593,17.7251691 Z M146.920293,14.8020166 L146.920293,13.4751128 L142.211197,13.4751128 L142.211197,20.6757642 L146.920293,20.6757642 L146.920293,19.3463193 L143.683385,19.3463193 L143.683385,17.7406691 L145.851272,17.7406691 L145.851272,16.4112242 L143.683385,16.4112242 L143.683385,14.8020166 L146.920293,14.8020166 Z M110.467059,20.6772888 L112.019262,20.6772888 L110.727946,17.2446683 C110.787894,17.1928321 110.845011,17.1389632 110.900328,17.0815368 L110.896468,17.0756926 L110.93892,17.0347827 C111.243032,16.6937821 111.432137,16.2531748 111.475361,15.8024035 C111.475361,15.7759773 111.477933,15.7523461 111.477933,15.7276985 C111.481278,15.6845017 111.486681,15.646641 111.486681,15.6070016 C111.486681,15.5650753 111.481278,15.5249277 111.477933,15.4863047 C111.477933,15.4624194 111.475361,15.4375177 111.475361,15.4138865 C111.432137,14.9620989 111.243032,14.5207293 110.93892,14.1812533 L110.896468,14.1327204 L110.900328,14.1319581 C110.522375,13.727941 109.983877,13.4748587 109.390062,13.4748587 L106.391143,13.4766373 L106.391143,20.6772888 L107.859985,20.6772888 L107.859985,17.740415 L109.36279,17.740415 L110.467059,20.6772888 Z M107.859985,14.8017625 L109.368707,14.8017625 C109.781393,14.8017625 110.116122,15.1569926 110.116122,15.597854 L110.116122,15.600395 L110.116122,15.6052229 C110.116122,16.0440515 109.781393,16.4018226 109.368707,16.4018226 L107.859985,16.4018226 L107.859985,14.8017625 Z M161.893021,35.0219276 L163.425413,35.0219276 C163.105607,34.1595163 161.064047,28.6290562 160.797242,27.900555 L159.00602,27.900555 C158.7369,28.6290562 156.697655,34.1595163 156.380165,35.0219276 L157.909984,35.0219276 C157.993602,34.7924764 158.217441,34.1912786 158.498911,33.4292364 L161.308211,33.4292364 C161.585822,34.1912786 161.806316,34.7924764 161.893021,35.0219276 Z M158.984409,32.103603 C159.292379,31.2663475 159.621447,30.3780181 159.900859,29.6177546 C160.181815,30.3780181 160.510369,31.2663475 160.82014,32.103603 L158.984409,32.103603 Z M176.437111,27.8863254 L174.181489,27.8863254 L174.181489,35.0082062 L176.437111,35.0066816 C178.403286,34.9685668 180,33.3733346 180,31.4487904 C180,29.5191642 178.403286,27.9206288 176.437111,27.8863254 Z M176.400576,33.6696138 L175.637468,33.6696138 L175.637468,29.2246638 L176.404436,29.2246638 C177.641464,29.2399097 178.645135,30.2352146 178.645135,31.4487904 C178.645135,32.656522 177.639663,33.6541138 176.400576,33.6696138 Z M145.981458,35.0084603 L147.515652,35.0084603 L146.238744,31.6139546 C146.29972,31.5626267 146.355551,31.5079954 146.409839,31.4515855 L146.406237,31.4482822 L146.44766,31.4058477 C146.748426,31.0686586 146.935987,30.6316087 146.978954,30.1876982 C146.978954,30.1617801 146.980755,30.1373866 146.980755,30.1129931 C146.984614,30.0700504 146.990017,30.0326979 146.990017,29.991788 C146.990017,29.9539273 146.984614,29.9122551 146.980755,29.8741403 C146.980755,29.8510173 146.978954,29.8258615 146.978954,29.8032467 C146.935987,29.3555246 146.748426,28.9179665 146.44766,28.5830643 L146.406237,28.5355478 L146.409839,28.5330069 C146.034459,28.1350882 145.503679,27.8845468 144.916039,27.8845468 L141.949538,27.8865795 L141.949538,35.0084603 L143.402429,35.0084603 L143.402429,32.1038571 L144.889281,32.1038571 L145.981458,35.0084603 Z M143.402429,29.1977293 L144.893141,29.1977293 C145.303511,29.1977293 145.633351,29.5483856 145.633351,29.9849273 L145.633351,29.9869601 L145.633351,29.991788 C145.633351,30.4262969 145.303511,30.7802565 144.893141,30.7802565 L143.402429,30.7802565 L143.402429,29.1977293 Z M154.172141,31.4602249 L154.21305,31.416774 C154.557555,31.0333389 154.755407,30.5210758 154.755407,30.0050011 C154.755407,28.8460566 153.825063,27.9010632 152.68323,27.9010632 L149.718015,27.9010632 L149.718015,35.0216735 L152.68323,35.0216735 C153.825063,35.0216735 154.755407,34.0776965 154.755407,32.9177355 C154.755407,32.4052183 154.557555,31.8891436 154.21305,31.5046922 L154.172141,31.4602249 Z M152.662133,33.6940073 L151.170649,33.6940073 L151.170649,33.3913757 L151.170649,32.3610051 L151.170649,32.1180866 L152.662133,32.1180866 C153.071988,32.1180866 153.399256,32.4712839 153.399256,32.903506 C153.399256,33.3400477 153.071988,33.6940073 152.662133,33.6940073 Z M152.662133,30.7929615 L151.170649,30.7929615 L151.170649,29.3755984 L151.170649,29.2213605 L152.662133,29.2213605 C153.071988,29.2213605 153.399256,29.5722709 153.399256,30.0050011 C153.399256,30.4415428 153.071988,30.7929615 152.662133,30.7929615 Z M115.331041,35.0392063 C116.997736,35.0392063 117.757757,33.9587782 117.757757,32.9528012 C117.757757,31.6574055 116.589167,31.2046015 115.646473,30.8389533 C114.959006,30.5713873 114.414847,30.3592148 114.414847,29.8728698 C114.414847,29.3471394 114.904461,29.1108275 115.39176,29.1108275 C116.024682,29.1108275 116.574501,29.3989755 116.889933,29.603525 L117.349188,28.3640312 C117.021406,28.1528751 116.369187,27.836268 115.412086,27.836268 C114.002161,27.836268 112.97482,28.7012203 112.97482,29.8926895 C112.97482,31.1641998 114.157047,31.6464793 115.104887,32.0344881 C115.755562,32.3020542 116.319017,32.5302349 116.319017,32.9952356 C116.319017,33.4632856 115.939778,33.7659173 115.35291,33.7659173 C114.815441,33.7659173 114.322482,33.5418021 114.002161,33.353769 C113.987239,33.3451297 113.733812,33.1952114 113.447196,32.9545798 L112.969932,34.256582 C113.037083,34.3046067 113.104492,34.3493281 113.177561,34.390238 C113.611602,34.686009 114.341006,35.0392063 115.331041,35.0392063 Z M108.67841,35.0082062 L110.133102,35.0082062 L110.133102,27.8863254 L108.67841,27.8863254 L108.67841,35.0082062 Z M131.163359,27.8919156 L129.189722,33.137531 L127.213513,27.8919156 L125.677004,27.8919156 L128.359462,35.0082062 L130.021269,35.0082062 L132.700382,27.8919156 L131.163359,27.8919156 Z M169.577623,27.8863254 L169.577623,33.5222365 L167.460935,27.8863254 L165.180614,27.8863254 L165.180614,35.0082062 L166.636593,35.0082062 L166.636593,29.3684837 L168.754567,35.0028702 L171.034116,35.0082062 L171.034116,27.8863254 L169.577623,27.8863254 Z M104.101816,27.8863254 L104.101816,33.5222365 L101.983328,27.8863254 L99.7027495,27.8863254 L99.7027495,35.0082062 L101.160014,35.0082062 L101.160014,29.3684837 L103.277474,35.0028702 L105.557795,35.0082062 L105.557795,27.8863254 L104.101816,27.8863254 Z M95.1400491,27.8863254 L95.1400491,33.5222365 L93.0223324,27.8863254 L90.7409821,27.8863254 L90.7409821,35.0082062 L92.1987616,35.0082062 L92.1987616,29.3684837 L94.3157064,35.0028702 L96.5960275,35.0082062 L96.5960275,27.8863254 L95.1400491,27.8863254 Z M88.0070668,29.1992539 L88.0070668,27.8865795 L83.3496853,27.8865795 L83.3496853,35.0084603 L88.0070668,35.0084603 L88.0070668,33.6937532 L84.8048919,33.6937532 L84.8048919,32.1074145 L86.9501381,32.1074145 L86.9501381,30.7927074 L84.8048919,30.7927074 L84.8048919,29.1992539 L88.0070668,29.1992539 Z M120.178556,30.7766991 L120.178556,32.0977587 L123.406717,32.0977587 L123.895302,30.7766991 L120.178556,30.7766991 Z M139.291522,29.1992539 L139.291522,27.8865795 L134.632854,27.8865795 L134.632854,35.0084603 L139.291522,35.0084603 L139.291522,33.6937532 L136.088832,33.6937532 L136.088832,32.1074145 L138.234336,32.1074145 L138.234336,30.7927074 L136.088832,30.7927074 L136.088832,29.1992539 L139.291522,29.1992539 Z M81.0408055,27.8863254 L74.9217852,27.8863254 L74.9217852,29.1989998 L77.2530488,29.1989998 L77.2530488,35.0082062 L78.7090273,35.0082062 L78.7090273,29.1989998 L81.0408055,29.1989998 L81.0408055,27.8863254 Z" id="Logo"></path>
            </g>
        </g>
    </g>
</svg>