<?xml version="1.0" encoding="UTF-8" standalone="no"?>
<svg
   xmlns:dc="http://purl.org/dc/elements/1.1/"
   xmlns:cc="http://creativecommons.org/ns#"
   xmlns:rdf="http://www.w3.org/1999/02/22-rdf-syntax-ns#"
   xmlns:svg="http://www.w3.org/2000/svg"
   xmlns="http://www.w3.org/2000/svg"
   xmlns:sodipodi="http://sodipodi.sourceforge.net/DTD/sodipodi-0.dtd"
   xmlns:inkscape="http://www.inkscape.org/namespaces/inkscape"
   inkscape:version="1.0 (4035a4fb49, 2020-05-01)"
   sodipodi:docname="New-Caledonia-Flag-2.svg"
   xml:space="preserve"
   id="svg2"
   height="308"
   width="616"
   version="1.1"><sodipodi:namedview
     inkscape:current-layer="g10"
     inkscape:window-maximized="0"
     inkscape:window-y="0"
     inkscape:window-x="0"
     inkscape:cy="154.0625"
     inkscape:cx="492.3806"
     inkscape:zoom="0.34005961"
     showgrid="false"
     id="namedview40"
     inkscape:window-height="480"
     inkscape:window-width="1350"
     inkscape:pageshadow="2"
     inkscape:pageopacity="0"
     guidetolerance="10"
     gridtolerance="10"
     objecttolerance="10"
     borderopacity="1"
     bordercolor="#666666"
     pagecolor="#ffffff" /><metadata
     id="metadata8"><rdf:RDF><cc:Work
         rdf:about=""><dc:format>image/svg+xml</dc:format><dc:type
           rdf:resource="http://purl.org/dc/dcmitype/StillImage" /><dc:title></dc:title></cc:Work></rdf:RDF></metadata><defs
     id="defs6"><clipPath
       id="clipPath28"><path
         id="path30"
         inkscape:connector-curvature="0"
         d="M 0,246.5 H 872.5 V 0 H 0 Z" /></clipPath></defs><g
     id="g10"
     transform="matrix(1.25,0,0,-1.25,0,308.125)"><path
       style="fill:#009543;fill-opacity:1;fill-rule:nonzero;stroke:none;stroke-width:1.0001"
       id="path18"
       inkscape:connector-curvature="0"
       d="M 0,0.1 H 492.8 V 246.5 H 0 Z" /><path
       style="fill:#ed4135;fill-opacity:1;fill-rule:nonzero;stroke:none;stroke-width:1.0001"
       id="path20"
       inkscape:connector-curvature="0"
       d="M 0,82.233333 H 492.8 V 246.5 H 0 Z" /><path
       style="fill:#0035ad;fill-opacity:1;fill-rule:nonzero;stroke:none;stroke-width:1.0001"
       id="path22"
       inkscape:connector-curvature="0"
       d="M 0,164.36667 H 492.8 V 246.5 H 0 Z" /><g
       transform="matrix(1.0001015,0,0,1.0001015,-379.78853,-0.02501268)"
       id="g24"><g
         id="g26"
         clip-path="url(#clipPath28)"><g
           id="g32"
           transform="translate(544,204.0571)"><path
             style="fill:#fae600;fill-opacity:1;fill-rule:nonzero;stroke:none"
             id="path34"
             inkscape:connector-curvature="0"
             d="m 0,0 c 44.594,0 80.745,-36.15 80.745,-80.745 0,-44.594 -36.151,-80.746 -80.745,-80.746 -44.595,0 -80.746,36.152 -80.746,80.746 C -80.746,-36.15 -44.595,0 0,0" /></g><g
           id="g36"
           transform="translate(544,204.0571)"><path
             style="fill:none;stroke:#000000;stroke-width:5;stroke-linecap:butt;stroke-linejoin:miter;stroke-miterlimit:4;stroke-dasharray:none;stroke-opacity:1"
             id="path38"
             inkscape:connector-curvature="0"
             d="m 0,0 c 44.594,0 80.745,-36.15 80.745,-80.745 0,-44.594 -36.151,-80.746 -80.745,-80.746 -44.595,0 -80.746,36.152 -80.746,80.746 C -80.746,-36.15 -44.595,0 0,0 Z" /></g><g
           id="g40"
           transform="translate(544,203.7954)"><path
             style="fill:#000000;fill-opacity:1;fill-rule:nonzero;stroke:#000000;stroke-width:6;stroke-linecap:butt;stroke-linejoin:miter;stroke-miterlimit:4;stroke-dasharray:none;stroke-opacity:1"
             id="path42"
             inkscape:connector-curvature="0"
             d="m 0,0 v -137.97 m -13.688,65.699 h 27.376 m -27.376,-20.257 h 27.376" /></g><g
           id="g44"
           transform="translate(511.4902,49.1699)"><path
             style="fill:#000000;fill-opacity:1;fill-rule:nonzero;stroke:none"
             id="path46"
             inkscape:connector-curvature="0"
             d="m 0,0 c 32.954,-13.457 63.842,-0.826 63.842,-0.826 0,0 -11.659,12.618 -17.638,17.546 -5.831,4.805 -22.989,4.615 -28.844,0 C 12.474,12.866 -1.539,-1.332 0,0" /></g><g
           id="g48"
           transform="translate(544,99.2217)"><path
             style="fill:#000000;fill-opacity:1;fill-rule:nonzero;stroke:none"
             id="path50"
             inkscape:connector-curvature="0"
             d="m 0,0 c 4.989,0 9.034,-5.882 9.034,-13.14 0,-7.256 -4.045,-13.14 -9.034,-13.14 -4.989,0 -9.033,5.884 -9.033,13.14 C -9.033,-5.882 -4.989,0 0,0" /></g><g
           id="g52"
           transform="translate(544,128.3281)"><path
             style="fill:#000000;fill-opacity:1;fill-rule:nonzero;stroke:none"
             id="path54"
             inkscape:connector-curvature="0"
             d="m 0,0 c 6.047,0 10.95,-3.104 10.95,-6.933 0,-3.827 -4.903,-6.93 -10.95,-6.93 -6.048,0 -10.95,3.103 -10.95,6.93 C -10.95,-3.104 -6.048,0 0,0" /></g><g
           id="g56"
           transform="translate(544,164.3755)"><path
             style="fill:#000000;fill-opacity:1;fill-rule:nonzero;stroke:none"
             id="path58"
             inkscape:connector-curvature="0"
             d="M 0,0 C 6.047,0 10.95,-4.902 10.95,-10.951 10.95,-16.998 6.047,-21.9 0,-21.9 c -6.048,0 -10.95,4.902 -10.95,10.949 C -10.95,-4.902 -6.048,0 0,0" /></g><g
           id="g60"
           transform="translate(557.1406,194.2139)"><path
             style="fill:#000000;fill-opacity:1;fill-rule:nonzero;stroke:none"
             id="path62"
             inkscape:connector-curvature="0"
             d="m 0,0 c -0.004,0.008 0.949,-1.571 -1.048,-5.167 -9.541,-17.181 -19.115,-17.553 -20.931,-19.033 -2.004,-1.629 -2.849,-1.519 -2.849,-1.519 0.143,1.473 0.276,7.49 0.381,8.07 1.447,8.028 13.576,7.918 23.067,16.138 1.483,1.283 1.376,1.519 1.376,1.519 z" /></g><g
           id="g64"
           transform="translate(525.1113,157.2573)"><path
             style="fill:#000000;fill-opacity:1;fill-rule:nonzero;stroke:none"
             id="path66"
             inkscape:connector-curvature="0"
             d="m 0,0 c 0,0 2.143,-6.148 2.463,-12.319 0.514,-9.852 9.954,-10.129 16.426,-10.129 v 5.475 c -4.851,0 -9.063,0.721 -12.592,7.939 C 4.556,-5.473 0,0 0,0" /></g><g
           id="g68"
           transform="translate(524.8379,77.8691)"><path
             style="fill:#000000;fill-opacity:1;fill-rule:nonzero;stroke:none"
             id="path70"
             inkscape:connector-curvature="0"
             d="m 0,0 c 0,0 3.446,4.253 7.479,14.223 2.105,5.2 7.091,8.225 11.683,8.225 v 7.664 C 8.745,30.112 3.749,26.251 3.223,20.607 2.14,9.012 0,0 0,0" /></g><g
           id="g72"
           transform="translate(562.8887,157.2573)"><path
             style="fill:#000000;fill-opacity:1;fill-rule:nonzero;stroke:none"
             id="path74"
             inkscape:connector-curvature="0"
             d="m 0,0 c 0,0 -2.144,-6.148 -2.464,-12.319 -0.512,-9.852 -9.953,-10.129 -16.425,-10.129 v 5.475 c 4.85,0 9.063,0.721 12.593,7.939 C -4.555,-5.473 0,0 0,0" /></g><g
           id="g76"
           transform="translate(563.1621,77.8691)"><path
             style="fill:#000000;fill-opacity:1;fill-rule:nonzero;stroke:none"
             id="path78"
             inkscape:connector-curvature="0"
             d="m 0,0 c 0,0 -3.447,4.253 -7.479,14.223 -2.105,5.2 -7.09,8.225 -11.683,8.225 v 7.664 c 10.418,0 15.412,-3.861 15.939,-9.505 C -2.141,9.012 0,0 0,0" /></g></g></g></g></svg>
