<?xml version="1.0" encoding="UTF-8" standalone="no"?>
<!-- Created with Inkscape (http://www.inkscape.org/) -->

<svg
   xmlns:dc="http://purl.org/dc/elements/1.1/"
   xmlns:cc="http://creativecommons.org/ns#"
   xmlns:rdf="http://www.w3.org/1999/02/22-rdf-syntax-ns#"
   xmlns:svg="http://www.w3.org/2000/svg"
   xmlns="http://www.w3.org/2000/svg"
   version="1.1"
   width="360"
   height="360"
   id="svg2985">
  <metadata
     id="metadata2991">
    <rdf:RDF>
      <cc:Work
         rdf:about="">
        <dc:format>image/svg+xml</dc:format>
        <dc:type
           rdf:resource="http://purl.org/dc/dcmitype/StillImage" />
        <dc:title></dc:title>
      </cc:Work>
    </rdf:RDF>
  </metadata>
  <defs
     id="defs2989" />
  <path
     d="m -90,95 a 15,15 0 1 1 -30,0 15,15 0 1 1 30,0 z"
     transform="matrix(11.667,0,0,11.667,1405,-928.37)"
     id="path2997"
     style="fill:#fcfe04;fill-opacity:1;stroke:#000000;stroke-width:0.34285;stroke-miterlimit:4;stroke-opacity:1;stroke-dasharray:none" />
  <path
     d="m -30,25 a 15,15 0 1 1 -30,0 15,15 0 1 1 30,0 z"
     transform="matrix(10.067,0,0,10.067,633.01,-71.675)"
     id="path3767"
     style="fill:#ffffff;fill-opacity:1;stroke:none" />
  <path
     d="m 82.367,253.51 -8.203,-34.36 7.102,0 5.179,23.6 6.282,-23.6 8.253,0 6.02,24 5.27,-24 6.99,0 -8.35,34.36 -7.36,0 -6.839,-25.69 -6.82,25.69 z"
     id="path3784" />
  <path
     d="m 153.76,253.51 -7.55,0 -3,-7.8 -13.73,0 -2.84,7.8 -7.36,0 13.38,-34.36 7.34,0 z m -12.78,-13.59 -4.73,-12.75 -4.64,12.75 z"
     id="path3786" />
  <path
     d="m 157.65,253.51 0,-34.08 6.94,0 0,28.29 17.25,0 0,5.79 z"
     id="path3788" />
  <path
     d="m 186.78,219.15 12.68,0 c 2.86,0 5.04,0.22 6.54,0.66 2.02,0.59 3.74,1.65 5.18,3.16 1.44,1.52 2.53,3.37 3.28,5.57 0.75,2.19 1.13,4.9 1.13,8.12 0,2.83 -0.36,5.27 -1.06,7.31 -0.86,2.5 -2.08,4.53 -3.68,6.07 -1.2,1.17 -2.83,2.09 -4.87,2.75 -1.53,0.48 -3.58,0.72 -6.14,0.72 l -13.06,0 z m 6.94,5.81 0,22.76 5.18,0 c 1.94,0 3.33,-0.11 4.19,-0.33 1.13,-0.28 2.06,-0.75 2.8,-1.43 0.75,-0.67 1.35,-1.77 1.82,-3.31 0.47,-1.54 0.7,-3.64 0.7,-6.29 0,-2.66 -0.23,-4.7 -0.7,-6.12 -0.47,-1.42 -1.12,-2.53 -1.97,-3.33 -0.84,-0.8 -1.91,-1.34 -3.21,-1.62 -0.97,-0.22 -2.87,-0.33 -5.69,-0.33 z"
     id="path3790" />
  <path
     d="m 252.48,253.51 -7.55,0 -3,-7.8 -13.73,0 -2.84,7.8 -7.36,0 13.38,-34.36 7.34,0 z m -12.78,-13.59 -4.73,-12.75 -4.64,12.75 z"
     id="path3792" />
  <path
     d="m 256.13,219.15 6.94,0 0,18.61 c 0,2.95 0.1,4.87 0.26,5.74 0.29,1.41 1,2.54 2.12,3.39 1.12,0.85 2.64,1.28 4.58,1.28 1.97,0 3.45,-0.4 4.45,-1.21 1,-0.8 1.61,-1.79 1.81,-2.96 0.2,-1.18 0.3,-3.12 0.3,-5.84 l 0,-19.01 6.94,0 0,18.05 c 0,4.12 -0.19,7.04 -0.56,8.74 -0.38,1.7 -1.07,3.14 -2.08,4.31 -1,1.18 -2.35,2.11 -4.04,2.8 -1.69,0.7 -3.89,1.05 -6.61,1.05 -3.28,0 -5.77,-0.38 -7.46,-1.14 -1.7,-0.76 -3.04,-1.74 -4.02,-2.95 -0.99,-1.21 -1.64,-2.48 -1.95,-3.81 -0.45,-1.97 -0.68,-4.88 -0.68,-8.72 z"
     id="path3794" />
  <path
     d="m 88.391,287.09 0,-3.09 c 0.354,0.31 0.779,0.59 1.274,0.84 0.494,0.25 1.015,0.46 1.562,0.64 0.547,0.17 1.096,0.3 1.649,0.39 0.552,0.1 1.062,0.15 1.531,0.15 1.614,0 2.82,-0.3 3.617,-0.9 0.797,-0.6 1.195,-1.46 1.195,-2.59 0,-0.6 -0.133,-1.13 -0.398,-1.58 -0.266,-0.44 -0.633,-0.85 -1.102,-1.22 -0.468,-0.37 -1.023,-0.73 -1.664,-1.07 -0.64,-0.33 -1.331,-0.69 -2.07,-1.07 -0.781,-0.39 -1.511,-0.79 -2.188,-1.2 -0.677,-0.41 -1.265,-0.85 -1.765,-1.34 -0.5,-0.49 -0.893,-1.05 -1.18,-1.67 -0.286,-0.62 -0.43,-1.34 -0.43,-2.18 0,-1.02 0.224,-1.91 0.672,-2.66 0.448,-0.76 1.037,-1.38 1.766,-1.87 0.729,-0.49 1.56,-0.85 2.492,-1.09 0.932,-0.24 1.883,-0.36 2.852,-0.36 2.208,0 3.816,0.26 4.826,0.8 l 0,2.95 c -1.321,-0.92 -3.019,-1.38 -5.092,-1.38 -0.573,0 -1.146,0.1 -1.719,0.18 -0.573,0.12 -1.083,0.32 -1.531,0.59 -0.448,0.27 -0.812,0.62 -1.094,1.05 -0.281,0.42 -0.422,0.94 -0.422,1.56 0,0.57 0.107,1.07 0.321,1.48 0.213,0.42 0.528,0.8 0.945,1.14 0.417,0.35 0.924,0.68 1.523,1 0.599,0.33 1.29,0.68 2.071,1.07 0.802,0.39 1.562,0.81 2.281,1.25 0.719,0.43 1.349,0.92 1.887,1.45 0.55,0.53 0.97,1.12 1.29,1.76 0.32,0.65 0.48,1.39 0.48,2.22 0,1.11 -0.22,2.04 -0.65,2.81 -0.43,0.76 -1.01,1.39 -1.749,1.87 -0.735,0.47 -1.581,0.82 -2.539,1.03 -0.959,0.22 -1.969,0.32 -3.031,0.32 -0.355,0 -0.792,0 -1.313,-0.1 -0.521,-0.1 -1.052,-0.14 -1.594,-0.25 -0.541,-0.11 -1.054,-0.25 -1.539,-0.41 -0.484,-0.16 -0.872,-0.34 -1.164,-0.54 z"
     id="path3797" />
  <path
     d="m 121.99,267.97 -6.47,0 0,20.03 -2.63,0 0,-20.03 -6.45,0 0,-2.38 15.55,0 z"
     id="path3799" />
  <path
     d="m 144.18,278.94 c 0,6.29 -2.84,9.43 -8.52,9.43 -5.43,0 -8.15,-3.02 -8.15,-9.07 l 0,-13.71 2.62,0 0,13.53 c 0,4.6 1.94,6.9 5.81,6.9 3.74,0 5.61,-2.22 5.61,-6.66 l 0,-13.77 2.63,0 z"
     id="path3801" />
  <path
     d="m 165.34,267.97 -6.47,0 0,20.03 -2.63,0 0,-20.03 -6.45,0 0,-2.38 15.55,0 z"
     id="path3803" />
  <path
     d="m 184.39,267.97 -6.47,0 0,20.03 -2.63,0 0,-20.03 -6.45,0 0,-2.38 15.55,0 z"
     id="path3805" />
  <path
     d="m 206.94,286.47 c -2.25,1.27 -4.75,1.9 -7.5,1.9 -3.2,0 -5.79,-1.03 -7.76,-3.09 -1.97,-2.06 -2.96,-4.79 -2.96,-8.19 0,-3.46 1.1,-6.31 3.29,-8.54 2.19,-2.22 4.97,-3.33 8.33,-3.33 2.44,0 4.49,0.39 6.14,1.19 l 0,2.9 c -1.81,-1.14 -3.95,-1.72 -6.43,-1.72 -2.51,0 -4.57,0.87 -6.17,2.6 -1.61,1.73 -2.41,3.97 -2.41,6.72 0,2.83 0.74,5.06 2.23,6.68 1.49,1.62 3.51,2.43 6.07,2.43 1.75,0 3.26,-0.35 4.54,-1.05 l 0,-6.28 -4.9,0 0,-2.38 7.53,0 z"
     id="path3807" />
  <path
     d="m 231.77,288 -2.91,0 -2.37,-6.28 -9.5,0 -2.24,6.28 -2.92,0 8.6,-22.41 2.71,0 z m -6.14,-8.64 -3.85,-11.05 -3.96,11.05 z"
     id="path3809" />
  <path
     d="m 253.41,288 -3.12,0 -3.75,-6.28 c -0.35,-0.58 -0.68,-1.08 -1,-1.49 -0.32,-0.41 -0.66,-0.75 -0.99,-1.01 -0.34,-0.26 -0.71,-0.45 -1.1,-0.57 -0.39,-0.12 -0.83,-0.18 -1.32,-0.18 l -2.15,0 0,9.53 -2.63,0 0,-22.41 6.69,0 c 0.98,0 1.88,0.13 2.71,0.37 0.83,0.25 1.55,0.62 2.16,1.12 0.6,0.5 1.08,1.12 1.42,1.87 0.35,0.74 0.52,1.61 0.52,2.61 0,0.78 -0.12,1.5 -0.35,2.15 -0.24,0.65 -0.57,1.23 -1,1.74 -0.43,0.51 -0.95,0.95 -1.56,1.31 -0.61,0.36 -1.3,0.64 -2.06,0.83 l 0,0.1 c 0.38,0.16 0.7,0.35 0.98,0.57 0.27,0.21 0.54,0.46 0.79,0.75 0.25,0.3 0.49,0.63 0.74,1 0.24,0.37 0.52,0.8 0.82,1.29 z m -13.43,-20.03 0,8.12 3.56,0 c 0.65,0 1.26,-0.1 1.82,-0.29 0.56,-0.2 1.04,-0.48 1.44,-0.85 0.41,-0.37 0.73,-0.83 0.96,-1.36 0.23,-0.54 0.34,-1.14 0.34,-1.81 0,-1.2 -0.39,-2.13 -1.16,-2.8 -0.78,-0.68 -1.9,-1.01 -3.37,-1.01 z"
     id="path3811" />
  <path
     d="m 272.03,267.97 -6.47,0 0,20.03 -2.63,0 0,-20.03 -6.45,0 0,-2.38 15.55,0 z"
     id="path3813" />
  <path
     d="m 147,64 c -15.72,38.83 -21.62,81.25 -41.36,118.49 -9.668,15.59 -26.766,27.42 -45.317,28.68 -9.133,0.96 -20.12,-6.09 -18.402,-16.23 -0.89,-7.27 12.166,-11.58 12.267,-2.61 0.575,5.55 -10.912,12.36 -0.654,14.46 9.377,-0.18 19.338,-3.28 26.334,-9.69 24.452,-25.82 34.032,-61 45.362,-93.75 4.71,-13.274 9.63,-26.732 17.77,-38.35 -26.53,3.306 -52.103,17.581 -67.565,39.58 -4.652,7.06 -9.535,17.76 -3.099,25.23 6.82,8.48 14.776,1.59 19.884,-4.42 9.96,-2.23 6.73,13.87 -0.899,14.43 C 80.873,141.5 67.425,137.24 65.09,125.63 62.106,109.24 72.136,93.61 83.205,82.447 93.71,71.494 108.08,65.819 122.34,61.573 147.92,53.864 174.06,47.171 198,35 192.28,48.413 177.12,53.492 164.29,57.598 158.59,59.723 151.84,60.16 147,64 z"
     id="path3831"
     style="fill:#000000;fill-opacity:1;stroke:none" />
  <path
     d="m 177.5,127 c -40.29,43.49 -26.63,84.43 1.5,83 24.71,-1.26 33.57,-23.32 37,-45 0.22,-1.69 -2.5,-1.57 -3.05,0 -28.02,83.17 -75.02,16.71 -29.95,-35 21.19,4.13 16.47,-17.84 2,-8.13 -8.49,-0.59 -10.98,-50.977 15,-59.57 4.57,-2.518 10.16,3.73 6,7.7 -5.93,7.645 -3.38,17.152 4,15 6.43,-3.087 2.49,-29.594 -10,-28 -17.42,1.728 -46.92,27.57 -22.5,70 z"
     id="path3833"
     style="fill:#000000;fill-opacity:1;stroke:none" />
  <path
     d="m 240,58 c -41.14,17.403 1.11,149 56,152 20.02,1.09 20.3,-27.79 10,-53 -1.03,-2.53 -4.21,-2.26 -3,2 11.86,38.56 2.51,41.27 -8,42 -24.78,0.78 -75.04,-93.88 -61,-133 3.14,-8.751 13.87,-8.254 15,-3 1.11,6.94 8.53,15.598 12,11 1.58,-10.411 -9.99,-22.655 -21,-18 z"
     id="path3013"
     style="fill:#000000;fill-opacity:1;stroke:none" />
</svg>
