<?xml version="1.0" encoding="UTF-8"?>
<svg id="Ebene_1" data-name="Ebene 1" xmlns="http://www.w3.org/2000/svg" xmlns:xlink="http://www.w3.org/1999/xlink" version="1.1" viewBox="0 0 308.98 161.58">
  <defs>
    <style>
      .cls-1 {
        clip-path: url(#clippath);
      }

      .cls-2 {
        fill: none;
      }

      .cls-2, .cls-3, .cls-4, .cls-5 {
        stroke-width: 0px;
      }

      .cls-3 {
        fill: #1a171b;
      }

      .cls-4 {
        fill: #bd0926;
      }

      .cls-5 {
        fill: #fdc800;
      }
    </style>
    <clipPath id="clippath">
      <rect class="cls-2" width="308.98" height="161.58"/>
    </clipPath>
  </defs>
  <g class="cls-1">
    <g>
      <path class="cls-3" d="M283.93,25.02c-4.42-3.07-10.06-4.01-16.32-2.72-3.25.67-6.57,1.93-9.87,3.67,2.43,1.44,4.21,3.91,4.67,6.91.04.29.07.57.09.85,2.36-1.2,4.7-2.06,6.95-2.53,3.81-.79,6.93-.35,9.28,1.28,3.6,2.49,5.25,8,4.54,15.09-.81,8.16-4.5,17.3-10.37,25.77-7.72,11.11-19.32,19.42-28.24,21.26-3.81.78-6.93.36-9.28-1.28-3.6-2.49-3.99-8.25-3.29-15.35.81-8.16,4.5-17.31,10.38-25.77,2.2-3.17,4.62-6.08,7.15-8.67-2.98-1.03-5.37-3.48-6.22-6.66-2.99,3.03-5.83,6.42-8.41,10.15-6.75,9.71-10.99,20.39-11.96,30.06-.84,8.43-.38,15.66,3.58,20.44l-25.93,47.39c.1-.19,34.97-41.54,34.97-41.54,3.28.91,6.94.96,10.84.16,11.29-2.33,24.73-11.83,33.88-24.98,14.71-21.18,16.27-44.69,3.56-53.53"/>
      <path class="cls-5" d="M262.4,32.88c.81,5.31-2.85,10.27-8.15,11.07-5.31.81-10.27-2.85-11.08-8.16-.81-5.31,2.85-10.27,8.16-11.08,5.31-.8,10.27,2.85,11.07,8.16"/>
    </g>
    <polygon class="cls-3" points="49.95 141.83 49.95 131.63 45.71 131.63 45.71 130 56.65 130 56.65 131.63 52.41 131.63 52.41 141.83 49.95 141.83"/>
    <polygon class="cls-3" points="58.3 141.83 58.3 130 65.88 130 65.88 131.63 60.76 131.63 60.76 134.93 64.99 134.93 64.99 136.56 60.76 136.56 60.76 140.15 66.25 140.15 66.25 141.83 58.3 141.83"/>
    <polygon class="cls-3" points="68.13 141.83 68.13 130 70.3 130 75.78 138.08 75.78 130 77.75 130 77.75 141.83 75.54 141.83 70.11 133.75 70.11 141.83 68.13 141.83"/>
    <polygon class="cls-3" points="80.72 141.83 80.72 130 82.89 130 88.36 138.08 88.36 130 90.33 130 90.33 141.83 88.12 141.83 82.69 133.75 82.69 141.83 80.72 141.83"/>
    <rect class="cls-3" x="93.3" y="130" width="2.46" height="11.83"/>
    <path class="cls-3" d="M98.06,141.73v-2.03c.92.39,1.61.62,2.07.69.46.08.88.11,1.26.11.69,0,1.21-.15,1.55-.46.34-.31.51-.68.51-1.11,0-.33-.1-.63-.29-.9-.19-.26-.66-.6-1.4-1.02l-.8-.44c-1.14-.63-1.91-1.22-2.31-1.76-.41-.54-.61-1.16-.61-1.87,0-.89.34-1.65,1.02-2.29.68-.63,1.66-.95,2.94-.95.95,0,2.03.13,3.22.41v1.89c-1.22-.45-2.19-.68-2.91-.68-.6,0-1.05.13-1.36.39-.31.26-.47.57-.47.93,0,.28.1.54.29.78.18.24.65.57,1.39.99l.85.47c1.31.73,2.14,1.37,2.5,1.9.36.54.53,1.15.53,1.83,0,.97-.37,1.8-1.11,2.48-.74.69-1.92,1.03-3.53,1.03-.96,0-2.07-.13-3.34-.4"/>
    <polygon class="cls-3" points="111.18 141.83 106.8 130 109.43 130 112.83 139.15 116.12 130 117.88 130 113.64 141.83 111.18 141.83"/>
    <polygon class="cls-3" points="119.52 141.83 119.52 130 127.1 130 127.1 131.63 121.98 131.63 121.98 134.93 126.21 134.93 126.21 136.56 121.98 136.56 121.98 140.15 127.47 140.15 127.47 141.83 119.52 141.83"/>
    <path class="cls-3" d="M129.35,141.83v-11.83h4.43c.91,0,1.6.11,2.07.34.47.23.85.57,1.12,1.03.27.46.41.98.41,1.56,0,.69-.2,1.35-.6,1.96-.4.62-.97,1.09-1.7,1.41l3.87,5.52h-3l-2.94-4.84h-1.35v4.84h-2.32ZM131.67,135.37h.57c1.02,0,1.72-.22,2.11-.66.39-.44.58-.94.58-1.5,0-.48-.16-.87-.47-1.15-.32-.29-.96-.43-1.92-.43h-.86v3.75Z"/>
    <path class="cls-3" d="M140.65,141.83v-11.83h4c.96,0,1.68.11,2.14.32.46.21.83.53,1.09.96.26.42.39.87.39,1.35,0,.6-.21,1.17-.62,1.71-.41.54-1.15.98-2.21,1.31.85.21,1.49.47,1.94.78.45.31.79.68,1.02,1.1.23.43.35.88.35,1.38,0,.53-.14,1.03-.41,1.49-.27.46-.65.82-1.12,1.06-.48.25-1.21.37-2.2.37h-4.36ZM143.02,134.93h.53c.75,0,1.3-.18,1.67-.56.37-.37.55-.82.55-1.36,0-.28-.06-.53-.16-.73-.11-.21-.3-.37-.57-.48-.27-.12-.8-.17-1.57-.17h-.44v3.3ZM143.02,140.16h.47c.85,0,1.44-.06,1.75-.17.31-.11.54-.29.7-.54.16-.25.23-.53.23-.83,0-.59-.26-1.08-.77-1.49-.51-.41-1.17-.61-1.96-.61h-.42v3.65Z"/>
    <path class="cls-3" d="M149.67,141.83l4.61-11.83h2.47l4.6,11.83h-2.53l-1.23-3.16h-4.9l-1.23,3.16h-1.79ZM153.3,137.1h3.67l-1.83-4.72-1.84,4.72Z"/>
    <polygon class="cls-3" points="163.02 141.83 163.02 130 165.19 130 170.66 138.08 170.66 130 172.63 130 172.63 141.83 170.43 141.83 164.99 133.75 164.99 141.83 163.02 141.83"/>
    <path class="cls-3" d="M175.6,141.83v-11.83h5.09c1.36,0,2.43.22,3.19.66.76.44,1.36,1.08,1.81,1.93s.68,1.88.68,3.08-.21,2.23-.64,3.16c-.43.93-1.05,1.66-1.87,2.2-.82.54-1.95.81-3.37.81h-4.88ZM178.06,140.16h1.84c.96,0,1.69-.15,2.2-.45.51-.3.91-.8,1.21-1.52.3-.71.44-1.5.44-2.38s-.14-1.58-.43-2.22c-.29-.64-.69-1.13-1.2-1.47-.51-.33-1.37-.5-2.58-.5h-1.49v8.53Z"/>
    <polygon class="cls-3" points="47 161.28 47 149.45 49.18 149.45 54.65 157.53 54.65 149.45 56.62 149.45 56.62 161.28 54.41 161.28 48.98 153.2 48.98 161.28 47 161.28"/>
    <rect class="cls-3" x="59.59" y="149.45" width="2.46" height="11.83"/>
    <polygon class="cls-3" points="65.02 161.28 65.02 149.45 72.59 149.45 72.59 151.08 67.48 151.08 67.48 154.37 71.71 154.37 71.71 156 67.48 156 67.48 159.6 72.97 159.6 72.97 161.28 65.02 161.28"/>
    <path class="cls-3" d="M74.85,161.28v-11.83h5.09c1.36,0,2.43.22,3.19.66.76.44,1.37,1.08,1.81,1.93.45.85.68,1.88.68,3.08s-.21,2.23-.64,3.16c-.43.93-1.05,1.66-1.87,2.2-.82.54-1.94.81-3.37.81h-4.88ZM77.31,159.6h1.84c.96,0,1.69-.15,2.2-.45.51-.3.91-.8,1.21-1.52.3-.71.44-1.5.44-2.38s-.14-1.58-.43-2.22c-.29-.64-.69-1.13-1.2-1.47-.51-.33-1.37-.5-2.58-.5h-1.49v8.53Z"/>
    <polygon class="cls-3" points="87.83 161.28 87.83 149.45 95.41 149.45 95.41 151.08 90.29 151.08 90.29 154.37 94.52 154.37 94.52 156 90.29 156 90.29 159.6 95.79 159.6 95.79 161.28 87.83 161.28"/>
    <path class="cls-3" d="M97.67,161.28v-11.83h4.43c.91,0,1.6.11,2.07.34.47.23.85.57,1.12,1.03.27.46.41.98.41,1.56,0,.69-.2,1.35-.6,1.96-.4.62-.97,1.09-1.7,1.41l3.87,5.52h-3l-2.94-4.84h-1.35v4.84h-2.32ZM99.98,154.82h.57c1.02,0,1.72-.22,2.11-.66.39-.44.58-.94.58-1.5,0-.48-.16-.87-.47-1.15-.31-.29-.96-.43-1.92-.43h-.86v3.75Z"/>
    <path class="cls-3" d="M108.3,161.18v-2.03c.92.39,1.61.62,2.07.69.46.08.88.11,1.26.11.69,0,1.21-.15,1.55-.46.34-.31.51-.68.51-1.11,0-.33-.1-.63-.29-.9-.19-.26-.66-.6-1.4-1.02l-.8-.44c-1.14-.63-1.91-1.22-2.31-1.76-.41-.54-.61-1.16-.61-1.87,0-.89.34-1.65,1.02-2.29.68-.63,1.66-.95,2.94-.95.95,0,2.03.13,3.22.41v1.89c-1.22-.45-2.19-.68-2.91-.68-.6,0-1.05.13-1.36.39-.31.26-.47.57-.47.93,0,.28.1.54.29.78.18.24.65.57,1.39.99l.85.47c1.31.73,2.14,1.37,2.5,1.9.36.54.53,1.15.53,1.83,0,.97-.37,1.8-1.11,2.48-.74.69-1.92,1.03-3.53,1.03-.96,0-2.07-.13-3.34-.4"/>
    <path class="cls-3" d="M117.02,161.28l4.61-11.83h2.47l4.6,11.83h-2.53l-1.23-3.16h-4.9l-1.23,3.16h-1.79ZM120.65,156.55h3.67l-1.83-4.72-1.84,4.72Z"/>
    <path class="cls-3" d="M139.89,160.82c-.52.23-.97.38-1.35.47-.38.08-.82.15-1.31.21-.49.05-.97.08-1.44.08-2.07,0-3.61-.58-4.63-1.75-1.02-1.17-1.53-2.66-1.53-4.46s.51-3.31,1.52-4.47c1.02-1.16,2.61-1.74,4.78-1.74,1.29,0,2.56.15,3.84.46v1.93c-.61-.21-1.12-.37-1.5-.47-.39-.1-.76-.17-1.11-.22-.35-.05-.7-.07-1.04-.07-1.36,0-2.34.44-2.96,1.31-.61.87-.92,1.96-.92,3.25s.35,2.45,1.04,3.29c.7.84,1.73,1.26,3.11,1.26,1.14,0,2.31-.29,3.49-.87v1.81Z"/>
    <polygon class="cls-3" points="142.03 161.28 142.03 149.45 144.5 149.45 144.5 154.25 149.39 154.25 149.39 149.45 151.85 149.45 151.85 161.28 149.39 161.28 149.39 155.88 144.5 155.88 144.5 161.28 142.03 161.28"/>
    <path class="cls-3" d="M154.14,161.18v-2.03c.92.39,1.61.62,2.07.69.46.08.88.11,1.26.11.69,0,1.21-.15,1.55-.46.34-.31.51-.68.51-1.11,0-.33-.1-.63-.29-.9-.19-.26-.66-.6-1.4-1.02l-.8-.44c-1.14-.63-1.91-1.22-2.31-1.76-.41-.54-.61-1.16-.61-1.87,0-.89.34-1.65,1.02-2.29.68-.63,1.66-.95,2.93-.95.95,0,2.03.13,3.22.41v1.89c-1.22-.45-2.19-.68-2.91-.68-.59,0-1.05.13-1.36.39-.31.26-.47.57-.47.93,0,.28.09.54.28.78.19.24.65.57,1.39.99l.86.47c1.31.73,2.14,1.37,2.5,1.9.36.54.53,1.15.53,1.83,0,.97-.37,1.8-1.11,2.48-.74.69-1.92,1.03-3.53,1.03-.96,0-2.07-.13-3.34-.4"/>
    <polygon class="cls-3" points="164.16 161.28 164.16 149.45 171.74 149.45 171.74 151.08 166.62 151.08 166.62 154.37 170.85 154.37 170.85 156 166.62 156 166.62 159.6 172.12 159.6 172.12 161.28 164.16 161.28"/>
    <polygon class="cls-3" points="173.99 161.28 173.99 149.45 176.16 149.45 181.64 157.53 181.64 149.45 183.61 149.45 183.61 161.28 181.4 161.28 175.97 153.2 175.97 161.28 173.99 161.28"/>
    <rect class="cls-3" x="185.79" y="155.51" width="3.55" height="1.48"/>
    <path class="cls-3" d="M191.51,161.28v-11.83h4c.96,0,1.68.11,2.14.32.46.21.83.53,1.09.96.26.42.39.87.39,1.35,0,.6-.21,1.17-.62,1.71-.41.54-1.15.98-2.21,1.31.85.21,1.49.47,1.94.78.45.31.79.68,1.02,1.1.23.43.35.88.35,1.38,0,.53-.14,1.03-.41,1.49-.27.46-.65.82-1.12,1.06-.48.25-1.21.37-2.2.37h-4.36ZM193.88,154.37h.53c.75,0,1.3-.18,1.67-.56.37-.37.55-.82.55-1.36,0-.28-.05-.53-.16-.73-.11-.21-.3-.37-.57-.48-.27-.12-.8-.17-1.57-.17h-.44v3.3ZM193.88,159.6h.47c.86,0,1.44-.06,1.75-.17.31-.11.54-.29.7-.54.16-.25.24-.53.24-.83,0-.59-.26-1.08-.77-1.49-.52-.41-1.17-.61-1.96-.61h-.42v3.65Z"/>
    <path class="cls-3" d="M201.82,161.28v-11.83h4.43c.91,0,1.6.11,2.07.34.47.23.85.57,1.12,1.03.27.46.41.98.41,1.56,0,.69-.2,1.35-.6,1.96-.4.62-.96,1.09-1.7,1.41l3.87,5.52h-3l-2.94-4.84h-1.35v4.84h-2.32ZM204.14,154.82h.57c1.02,0,1.72-.22,2.11-.66.39-.44.58-.94.58-1.5,0-.48-.16-.87-.47-1.15-.31-.29-.96-.43-1.92-.43h-.86v3.75Z"/>
    <polygon class="cls-3" points="213.12 161.28 213.12 149.45 220.7 149.45 220.7 151.08 215.58 151.08 215.58 154.37 219.81 154.37 219.81 156 215.58 156 215.58 159.6 221.07 159.6 221.07 161.28 213.12 161.28"/>
    <polygon class="cls-3" points="222.95 161.28 222.95 149.45 226.21 149.45 229.06 157.77 232 149.45 234.86 149.45 234.86 161.28 232.59 161.28 232.59 152.35 229.7 160.49 227.72 160.49 224.89 152.23 224.89 161.28 222.95 161.28"/>
    <polygon class="cls-3" points="237.81 161.28 237.81 149.45 245.39 149.45 245.39 151.08 240.27 151.08 240.27 154.37 244.5 154.37 244.5 156 240.27 156 240.27 159.6 245.77 159.6 245.77 161.28 237.81 161.28"/>
    <polygon class="cls-3" points="247.64 161.28 247.64 149.45 249.82 149.45 255.29 157.53 255.29 149.45 257.26 149.45 257.26 161.28 255.05 161.28 249.62 153.2 249.62 161.28 247.64 161.28"/>
    <path class="cls-3" d="M270.92,160.98c-1.12.33-2.18.5-3.18.5-.95,0-1.78-.18-2.49-.53-.71-.36-1.26-.91-1.64-1.66-.38-.75-.58-1.57-.58-2.46,0-.82.16-1.58.49-2.28.33-.7.8-1.24,1.42-1.65.62-.4,1.39-.6,2.3-.6,1.12,0,2.01.36,2.68,1.07.67.71,1,2.04,1,3.99h-5.4c.05.59.19,1.06.4,1.4.21.34.5.61.87.81.37.2.85.3,1.47.3.79,0,1.67-.18,2.66-.55v1.66ZM265.49,156.03h3.11c0-.8-.13-1.38-.4-1.73s-.61-.52-1.03-.52c-.46,0-.83.19-1.13.57-.29.38-.48.94-.55,1.68"/>
    <rect class="cls-3" x="272.68" y="158.71" width="2.57" height="2.57"/>
    <polygon class="cls-3" points="280.55 161.28 276.18 149.45 278.81 149.45 282.2 158.6 285.49 149.45 287.26 149.45 283.02 161.28 280.55 161.28"/>
    <rect class="cls-3" x="286.85" y="158.71" width="2.57" height="2.57"/>
    <path class="cls-4" d="M209.82,78.96c-1.1-1.51-2.61-2.61-4.55-3.29,1.67-.94,3.01-2.25,4-3.92.99-1.67,1.49-3.56,1.49-5.65v-5.49c0-10.3-6.07-15.46-18.2-15.46h-43.47v51.63h-1.49c-2.4,0-4-.52-5.9-1.53-1.91-1.02-3.78-2.27-5.14-4.12-6.64-8.97-17.56-28.56-24.35-37.43-2.39-3.12-5.36-5.09-8.24-6.48-2.88-1.39-7.03-2.07-10.75-2.07H.24l46.28,11.14v51.63h11.69v-51.63h21.56v51.63h11.38v-51.63h1.49c2.35.06,4.47.59,6.35,1.61,1.88,1.02,3.72,2.25,5.1,4.04,6.72,8.75,17.45,28.15,23.88,37.12,2.32,3.23,5.38,5.27,8.44,6.71,3.06,1.44,6.79,2.16,11.18,2.16h44.96c12.61,0,18.91-5.15,18.91-15.46v-8.16c0-2.04-.55-3.82-1.65-5.34M192.56,56.29c2.51,0,4.32.51,5.41,1.53,1.1,1.02,1.65,2.58,1.65,4.67v4.47c0,1.1-.34,2.07-1.02,2.9-.68.84-1.67,1.25-2.98,1.25h-35.07v-14.83h32.01ZM199.78,90.97c0,2.3-.8,3.84-2.39,4.63-1.6.79-3.83,1.18-6.71,1.18h-30.13v-15.62h35.07c1.36,0,2.39.34,3.1,1.02.71.68,1.06,1.54,1.06,2.59v6.2Z"/>
  </g>
</svg>