STARTFONT 2.1
FONT -FreeType-Seven Segment-Medium-R-Normal--32-230-100-100-P-105-ISO10646-1
SIZE 23 100 100
FONTBOUNDINGBOX 12 23 2 0
COMMENT "Generated by fontforge, http://fontforge.sourceforge.net"
COMMENT ""
COMMENT "Converted from OpenType font "7segment.ttf" by "otf2bdf 3.0"."
COMMENT ""
STARTPROPERTIES 19
FOUNDRY "FreeType"
FAMILY_NAME "Seven Segment"
WEIGHT_NAME "Medium"
SLANT "R"
SETWIDTH_NAME "Normal"
ADD_STYLE_NAME ""
PIXEL_SIZE 32
POINT_SIZE 230
RESOLUTION_X 100
RESOLUTION_Y 100
SPACING "P"
AVERAGE_WIDTH 105
CHARSET_REGISTRY "ISO10646"
CHARSET_ENCODING "1"
FONT_ASCENT 27
FONT_DESCENT 5
COPYRIGHT "-FreeType-Seven Segment-Medium-R-Normal--32-230-100-100-P-105-ISO10646-1"
_OTF_FONTFILE "7segment.ttf"
_OTF_PSNAME "SevenSegmentRegular"
ENDPROPERTIES
CHARS 11
STARTCHAR $0030
ENCODING 48
SWIDTH 500 0
DWIDTH 16 0
BBX 12 23 2 0
BITMAP
3FC0
3FC0
C030
C030
C030
C030
C030
C030
C030
C030
8010
0000
8010
C030
C030
C030
C030
C030
C030
C030
C030
3FC0
3FC0
ENDCHAR
STARTCHAR $0031
ENCODING 49
SWIDTH 500 0
DWIDTH 16 0
BBX 12 23 2 0
BITMAP
0020
0030
0030
0030
0030
0030
0030
0030
0030
0030
0000
0000
0030
0030
0030
0030
0030
0030
0030
0030
0030
0030
0020
ENDCHAR
STARTCHAR $0032
ENCODING 50
SWIDTH 500 0
DWIDTH 16 0
BBX 12 23 2 0
BITMAP
3FC0
3FC0
0030
0030
0030
0030
0030
0030
0030
0030
3FC0
3FC0
C000
C000
C000
C000
C000
C000
C000
C000
C000
3FC0
3FC0
ENDCHAR
STARTCHAR $0033
ENCODING 51
SWIDTH 500 0
DWIDTH 16 0
BBX 12 23 2 0
BITMAP
7FC0
7FC0
0030
0030
0030
0030
0030
0030
0030
0030
7FC0
7FC0
0030
0030
0030
0030
0030
0030
0030
0030
0030
7FC0
7FC0
ENDCHAR
STARTCHAR $0034
ENCODING 52
SWIDTH 500 0
DWIDTH 16 0
BBX 12 23 2 0
BITMAP
8010
C030
C030
C030
C030
C030
C030
C030
C030
C030
3FC0
3FC0
0030
0030
0030
0030
0030
0030
0030
0030
0030
0030
0010
ENDCHAR
STARTCHAR $0035
ENCODING 53
SWIDTH 500 0
DWIDTH 16 0
BBX 12 23 2 0
BITMAP
3FC0
3FC0
C000
C000
C000
C000
C000
C000
C000
C000
3FC0
3FC0
0030
0030
0030
0030
0030
0030
0030
0030
0030
3FC0
3FC0
ENDCHAR
STARTCHAR $0036
ENCODING 54
SWIDTH 500 0
DWIDTH 16 0
BBX 12 23 2 0
BITMAP
3FC0
3FC0
C000
C000
C000
C000
C000
C000
C000
C000
3FC0
3FC0
C030
C030
C030
C030
C030
C030
C030
C030
C030
3FC0
3FC0
ENDCHAR
STARTCHAR $0037
ENCODING 55
SWIDTH 500 0
DWIDTH 16 0
BBX 12 23 2 0
BITMAP
7FC0
7FC0
0030
0030
0030
0030
0030
0030
0030
0030
0020
0000
0020
0030
0030
0030
0030
0030
0030
0030
0030
0030
0020
ENDCHAR
STARTCHAR $0038
ENCODING 56
SWIDTH 500 0
DWIDTH 16 0
BBX 12 23 2 0
BITMAP
3FC0
3FC0
C030
C030
C030
C030
C030
C030
C030
C030
3FC0
3FC0
C030
C030
C030
C030
C030
C030
C030
C030
C030
3FC0
3FC0
ENDCHAR
STARTCHAR $0039
ENCODING 57
SWIDTH 500 0
DWIDTH 16 0
BBX 12 23 2 0
BITMAP
3FC0
3FC0
C030
C030
C030
C030
C030
C030
C030
C030
3FC0
3FC0
0030
0030
0030
0030
0030
0030
0030
0030
0030
3FC0
3FC0
ENDCHAR
STARTCHAR $003A
ENCODING 58
SWIDTH 187 0
DWIDTH 6 0
BBX 2 9 2 0
BITMAP
80
C0
80
00
00
00
80
C0
80
ENDCHAR
ENDFONT
