STARTFONT 2.1
FONT -FreeType-Seven Segment-Medium-R-Normal--91-660-100-100-P-296-ISO10646-1
SIZE 66 100 100
FONTBOUNDINGBOX 35 64 6 0
COMMENT "Generated by fontforge, http://fontforge.sourceforge.net"
COMMENT ""
COMMENT "Converted from OpenType font "7segment.ttf" by "otf2bdf 3.0"."
COMMENT ""
STARTPROPERTIES 19
FOUNDRY "FreeType"
FAMILY_NAME "Seven Segment"
WEIGHT_NAME "Medium"
SLANT "R"
SETWIDTH_NAME "Normal"
ADD_STYLE_NAME ""
PIXEL_SIZE 91
POINT_SIZE 660
RESOLUTION_X 100
RESOLUTION_Y 100
SPACING "P"
AVERAGE_WIDTH 296
CHARSET_REGISTRY "ISO10646"
CHARSET_ENCODING "1"
FONT_ASCENT 79
FONT_DESCENT 16
COPYRIGHT "-FreeType-Seven Segment-Medium-R-Normal--91-660-100-100-P-296-ISO10646-1"
_OTF_FONTFILE "7segment.ttf"
_OTF_PSNAME "SevenSegmentRegular"
ENDPROPERTIES
CHARS 11
STARTCHAR $0030
ENCODING 48
SWIDTH 501 0
DWIDTH 46 0
BBX 35 64 6 0
BITMAP
03FFFFF000
07FFFFF800
0FFFFFFC00
0FFFFFFC00
07FFFFF800
63FFFFF180
F0000003C0
F8000007E0
F8000007E0
F8000007E0
F8000007E0
F8000007E0
F8000007E0
F8000007E0
F8000007E0
F8000007E0
F8000007E0
F8000007E0
F8000007E0
F8000007E0
F8000007E0
F8000007E0
F8000007E0
F8000007E0
F8000007E0
F8000007E0
F8000007E0
F8000007E0
F8000003C0
7000000180
2000000000
0000000000
0000000000
0000000000
6000000180
F8000003C0
F8000007E0
F8000007E0
F8000007E0
F8000007E0
F8000007E0
F8000007E0
F8000007E0
F8000007E0
F8000007E0
F8000007E0
F8000007E0
F8000007E0
F8000007E0
F8000007E0
F8000007E0
F8000007E0
F8000007E0
F8000007E0
F8000007E0
F8000007E0
F8000007E0
F0000003C0
63FFFFF180
07FFFFF800
0FFFFFFC00
0FFFFFFC00
07FFFFF800
03FFFFF000
ENDCHAR
STARTCHAR $0031
ENCODING 49
SWIDTH 505 0
DWIDTH 46 0
BBX 6 64 21 0
BITMAP
30
78
FC
FC
FC
FC
FC
FC
FC
FC
FC
FC
FC
FC
FC
FC
FC
FC
FC
FC
FC
FC
FC
FC
FC
FC
FC
FC
78
30
00
00
00
30
78
FC
FC
FC
FC
FC
FC
FC
FC
FC
FC
FC
FC
FC
FC
FC
FC
FC
FC
FC
FC
FC
FC
FC
FC
FC
FC
FC
78
30
ENDCHAR
STARTCHAR $0032
ENCODING 50
SWIDTH 501 0
DWIDTH 46 0
BBX 35 64 6 0
BITMAP
03FFFFF000
07FFFFF800
0FFFFFFC00
0FFFFFFC00
07FFFFF800
03FFFFF180
00000003C0
00000007E0
00000007E0
00000007E0
00000007E0
00000007E0
00000007E0
00000007E0
00000007E0
00000007E0
00000007E0
00000007E0
00000007E0
00000007E0
00000007E0
00000007E0
00000007E0
00000007E0
00000007E0
00000007E0
00000007E0
00000007E0
00000003C0
03FFFFF180
07FFFFF800
0FFFFFFC00
0FFFFFFC00
07FFFFF800
63FFFFF000
F000000000
F800000000
F800000000
F800000000
F800000000
F800000000
F800000000
F800000000
F800000000
F800000000
F800000000
F800000000
F800000000
F800000000
F800000000
F800000000
F800000000
F800000000
F800000000
F800000000
F800000000
F800000000
F000000000
63FFFFF000
07FFFFF800
0FFFFFFC00
0FFFFFFC00
07FFFFF800
03FFFFF000
ENDCHAR
STARTCHAR $0033
ENCODING 51
SWIDTH 505 0
DWIDTH 46 0
BBX 30 64 11 0
BITMAP
3FFFFE00
7FFFFF00
FFFFFF80
FFFFFF80
7FFFFF00
3FFFFE30
00000078
000000FC
000000FC
000000FC
000000FC
000000FC
000000FC
000000FC
000000FC
000000FC
000000FC
000000FC
000000FC
000000FC
000000FC
000000FC
000000FC
000000FC
000000FC
000000FC
000000FC
000000FC
00000078
3FFFFE30
7FFFFF00
FFFFFF80
FFFFFF80
7FFFFF00
3FFFFE30
00000078
000000FC
000000FC
000000FC
000000FC
000000FC
000000FC
000000FC
000000FC
000000FC
000000FC
000000FC
000000FC
000000FC
000000FC
000000FC
000000FC
000000FC
000000FC
000000FC
000000FC
000000FC
00000078
3FFFFE30
7FFFFF00
FFFFFF80
FFFFFF80
7FFFFF00
3FFFFE00
ENDCHAR
STARTCHAR $0034
ENCODING 52
SWIDTH 501 0
DWIDTH 46 0
BBX 35 64 6 0
BITMAP
2000000100
7000000380
F8000007C0
F8000007E0
F8000007E0
F8000007E0
F8000007E0
F8000007E0
F8000007E0
F8000007E0
F8000007E0
F8000007E0
F8000007E0
F8000007E0
F8000007E0
F8000007E0
F8000007E0
F8000007E0
F8000007E0
F8000007E0
F8000007E0
F8000007E0
F8000007E0
F8000007E0
F8000007E0
F8000007E0
F8000007E0
F8000007E0
F0000003C0
63FFFFF180
07FFFFF800
0FFFFFFC00
0FFFFFFC00
07FFFFF800
03FFFFF180
00000003C0
00000007E0
00000007E0
00000007E0
00000007E0
00000007E0
00000007E0
00000007E0
00000007E0
00000007E0
00000007E0
00000007E0
00000007E0
00000007E0
00000007E0
00000007E0
00000007E0
00000007E0
00000007E0
00000007E0
00000007E0
00000007E0
00000007E0
00000007E0
00000007E0
00000007E0
00000007C0
0000000380
0000000100
ENDCHAR
STARTCHAR $0035
ENCODING 53
SWIDTH 501 0
DWIDTH 46 0
BBX 35 64 6 0
BITMAP
03FFFFF000
07FFFFF800
0FFFFFFC00
0FFFFFFC00
07FFFFF800
63FFFFF000
F000000000
F800000000
F800000000
F800000000
F800000000
F800000000
F800000000
F800000000
F800000000
F800000000
F800000000
F800000000
F800000000
F800000000
F800000000
F800000000
F800000000
F800000000
F800000000
F800000000
F800000000
F800000000
F000000000
63FFFFF000
07FFFFF800
0FFFFFFC00
0FFFFFFC00
07FFFFF800
03FFFFF180
00000003C0
00000007E0
00000007E0
00000007E0
00000007E0
00000007E0
00000007E0
00000007E0
00000007E0
00000007E0
00000007E0
00000007E0
00000007E0
00000007E0
00000007E0
00000007E0
00000007E0
00000007E0
00000007E0
00000007E0
00000007E0
00000007E0
00000003C0
03FFFFF180
07FFFFF800
0FFFFFFC00
0FFFFFFC00
07FFFFF800
03FFFFF000
ENDCHAR
STARTCHAR $0036
ENCODING 54
SWIDTH 501 0
DWIDTH 46 0
BBX 35 64 6 0
BITMAP
03FFFFF000
07FFFFF800
0FFFFFFC00
0FFFFFFC00
07FFFFF800
63FFFFF000
F000000000
F800000000
F800000000
F800000000
F800000000
F800000000
F800000000
F800000000
F800000000
F800000000
F800000000
F800000000
F800000000
F800000000
F800000000
F800000000
F800000000
F800000000
F800000000
F800000000
F800000000
F800000000
F000000000
63FFFFF000
07FFFFF800
0FFFFFFC00
0FFFFFFC00
07FFFFF800
63FFFFF180
F0000003C0
F8000007E0
F8000007E0
F8000007E0
F8000007E0
F8000007E0
F8000007E0
F8000007E0
F8000007E0
F8000007E0
F8000007E0
F8000007E0
F8000007E0
F8000007E0
F8000007E0
F8000007E0
F8000007E0
F8000007E0
F8000007E0
F8000007E0
F8000007E0
F8000007E0
F0000003C0
63FFFFF180
07FFFFF800
0FFFFFFC00
0FFFFFFC00
07FFFFF800
03FFFFF000
ENDCHAR
STARTCHAR $0037
ENCODING 55
SWIDTH 505 0
DWIDTH 46 0
BBX 30 64 11 0
BITMAP
3FFFFE00
7FFFFF00
FFFFFF80
FFFFFF80
7FFFFF00
3FFFFE30
00000078
000000FC
000000FC
000000FC
000000FC
000000FC
000000FC
000000FC
000000FC
000000FC
000000FC
000000FC
000000FC
000000FC
000000FC
000000FC
000000FC
000000FC
000000FC
000000FC
000000FC
000000FC
00000078
00000030
00000000
00000000
00000000
00000000
00000030
00000078
000000FC
000000FC
000000FC
000000FC
000000FC
000000FC
000000FC
000000FC
000000FC
000000FC
000000FC
000000FC
000000FC
000000FC
000000FC
000000FC
000000FC
000000FC
000000FC
000000FC
000000FC
000000FC
000000FC
000000FC
000000FC
0000007C
00000038
00000010
ENDCHAR
STARTCHAR $0038
ENCODING 56
SWIDTH 501 0
DWIDTH 46 0
BBX 35 64 6 0
BITMAP
03FFFFF000
07FFFFF800
0FFFFFFC00
0FFFFFFC00
07FFFFF800
63FFFFF180
F0000003C0
F8000007E0
F8000007E0
F8000007E0
F8000007E0
F8000007E0
F8000007E0
F8000007E0
F8000007E0
F8000007E0
F8000007E0
F8000007E0
F8000007E0
F8000007E0
F8000007E0
F8000007E0
F8000007E0
F8000007E0
F8000007E0
F8000007E0
F8000007E0
F8000007E0
F0000003C0
63FFFFF180
07FFFFF800
0FFFFFFC00
0FFFFFFC00
07FFFFF800
63FFFFF180
F0000003C0
F8000007E0
F8000007E0
F8000007E0
F8000007E0
F8000007E0
F8000007E0
F8000007E0
F8000007E0
F8000007E0
F8000007E0
F8000007E0
F8000007E0
F8000007E0
F8000007E0
F8000007E0
F8000007E0
F8000007E0
F8000007E0
F8000007E0
F8000007E0
F8000007E0
F0000003C0
63FFFFF180
07FFFFF800
0FFFFFFC00
0FFFFFFC00
07FFFFF800
03FFFFF000
ENDCHAR
STARTCHAR $0039
ENCODING 57
SWIDTH 501 0
DWIDTH 46 0
BBX 35 64 6 0
BITMAP
03FFFFF000
07FFFFF800
0FFFFFFC00
0FFFFFFC00
07FFFFF800
63FFFFF180
F0000003C0
F8000007E0
F8000007E0
F8000007E0
F8000007E0
F8000007E0
F8000007E0
F8000007E0
F8000007E0
F8000007E0
F8000007E0
F8000007E0
F8000007E0
F8000007E0
F8000007E0
F8000007E0
F8000007E0
F8000007E0
F8000007E0
F8000007E0
F8000007E0
F8000007E0
F0000003C0
63FFFFF180
07FFFFF800
0FFFFFFC00
0FFFFFFC00
07FFFFF800
03FFFFF180
00000003C0
00000007E0
00000007E0
00000007E0
00000007E0
00000007E0
00000007E0
00000007E0
00000007E0
00000007E0
00000007E0
00000007E0
00000007E0
00000007E0
00000007E0
00000007E0
00000007E0
00000007E0
00000007E0
00000007E0
00000007E0
00000007E0
00000003C0
03FFFFF180
07FFFFF800
0FFFFFFC00
0FFFFFFC00
07FFFFF800
03FFFFF000
ENDCHAR
STARTCHAR $003A
ENCODING 58
SWIDTH 185 0
DWIDTH 17 0
BBX 5 27 6 0
BITMAP
20
70
F8
F8
F8
F8
F8
70
20
00
00
00
00
00
00
00
00
00
20
70
F8
F8
F8
F8
F8
70
20
ENDCHAR
ENDFONT
