STARTFONT 2.1
FONT -FreeType-Seven Segment-Medium-R-Normal--62-450-100-100-P-204-ISO10646-1
SIZE 45 100 100
FONTBOUNDINGBOX 145 62 0 -8
COMMENT "Generated by fontforge, http://fontforge.sourceforge.net"
COMMENT ""
COMMENT "Converted from OpenType font "7segment.ttf" by "otf2bdf 3.0"."
COMMENT ""
STARTPROPERTIES 19
FOUNDRY "FreeType"
FAMILY_NAME "Seven Segment"
WEIGHT_NAME "Medium"
SLANT "R"
SETWIDTH_NAME "Normal"
ADD_STYLE_NAME ""
PIXEL_SIZE 62
POINT_SIZE 450
RESOLUTION_X 100
RESOLUTION_Y 100
SPACING "P"
AVERAGE_WIDTH 204
CHARSET_REGISTRY "ISO10646"
CHARSET_ENCODING "1"
FONT_ASCENT 54
FONT_DESCENT 10
COPYRIGHT "-FreeType-Seven Segment-Medium-R-Normal--62-450-100-100-P-204-ISO10646-1"
_OTF_FONTFILE "7segment.ttf"
_OTF_PSNAME "SevenSegmentRegular"
ENDPROPERTIES
CHARS 11
STARTCHAR $0030
ENCODING 48
SWIDTH 512 0
DWIDTH 32 0
BBX 24 44 4 0
BITMAP
0FFFE0
1FFFF0
1FFFF0
4FFFE4
E0000E
F0000F
F0000F
F0000F
F0000F
F0000F
F0000F
F0000F
F0000F
F0000F
F0000F
F0000F
F0000F
F0000F
F0000F
E0000E
400004
000000
000000
400004
E0000E
F0000F
F0000F
F0000F
F0000F
F0000F
F0000F
F0000F
F0000F
F0000F
F0000F
F0000F
F0000F
F0000F
F0000F
E0000E
4FFFE4
1FFFF0
1FFFF0
0FFFE0
ENDCHAR
STARTCHAR $0031
ENCODING 49
SWIDTH 516 0
DWIDTH 32 0
BBX 24 44 4 0
BITMAP
000004
00000E
00000F
00000F
00000F
00000F
00000F
00000F
00000F
00000F
00000F
00000F
00000F
00000F
00000F
00000F
00000F
00000F
00000F
00000E
000004
000000
000000
000006
00000F
00000F
00000F
00000F
00000F
00000F
00000F
00000F
00000F
00000F
00000F
00000F
00000F
00000F
00000F
00000F
00000F
00000F
00000E
000004
ENDCHAR
STARTCHAR $0032
ENCODING 50
SWIDTH 512 0
DWIDTH 32 0
BBX 24 44 4 0
BITMAP
0FFFE0
1FFFF0
1FFFF0
0FFFE4
00000E
00000F
00000F
00000F
00000F
00000F
00000F
00000F
00000F
00000F
00000F
00000F
00000F
00000F
00000F
00000E
0FFFE4
1FFFF0
1FFFF0
4FFFE0
E00000
F00000
F00000
F00000
F00000
F00000
F00000
F00000
F00000
F00000
F00000
F00000
F00000
F00000
F00000
E00000
4FFFE0
1FFFF0
1FFFF0
0FFFE0
ENDCHAR
STARTCHAR $0033
ENCODING 51
SWIDTH 516 0
DWIDTH 32 0
BBX 24 44 4 0
BITMAP
0FFFE0
1FFFF0
1FFFF0
0FFFE4
00000E
00000F
00000F
00000F
00000F
00000F
00000F
00000F
00000F
00000F
00000F
00000F
00000F
00000F
00000F
00000E
0FFFE4
1FFFF0
1FFFF0
0FFFE4
00000E
00000F
00000F
00000F
00000F
00000F
00000F
00000F
00000F
00000F
00000F
00000F
00000F
00000F
00000F
00000E
0FFFE4
1FFFF0
1FFFF0
0FFFE0
ENDCHAR
STARTCHAR $0034
ENCODING 52
SWIDTH 512 0
DWIDTH 32 0
BBX 24 44 4 0
BITMAP
400004
E0000E
F0000F
F0000F
F0000F
F0000F
F0000F
F0000F
F0000F
F0000F
F0000F
F0000F
F0000F
F0000F
F0000F
F0000F
F0000F
F0000F
F0000F
E0000E
4FFFE4
1FFFF0
1FFFF0
0FFFE4
00000E
00000F
00000F
00000F
00000F
00000F
00000F
00000F
00000F
00000F
00000F
00000F
00000F
00000F
00000F
00000F
00000F
00000F
00000E
000004
ENDCHAR
STARTCHAR $0035
ENCODING 53
SWIDTH 512 0
DWIDTH 32 0
BBX 24 44 4 0
BITMAP
0FFFE0
1FFFF0
1FFFF0
4FFFE0
E00000
F00000
F00000
F00000
F00000
F00000
F00000
F00000
F00000
F00000
F00000
F00000
F00000
F00000
F00000
E00000
4FFFE0
1FFFF0
1FFFF0
0FFFE4
00000E
00000F
00000F
00000F
00000F
00000F
00000F
00000F
00000F
00000F
00000F
00000F
00000F
00000F
00000F
00000E
0FFFE4
1FFFF0
1FFFF0
0FFFE0
ENDCHAR
STARTCHAR $0036
ENCODING 54
SWIDTH 512 0
DWIDTH 32 0
BBX 24 44 4 0
BITMAP
0FFFE0
1FFFF0
1FFFF0
4FFFE0
E00000
F00000
F00000
F00000
F00000
F00000
F00000
F00000
F00000
F00000
F00000
F00000
F00000
F00000
F00000
E00000
4FFFE0
1FFFF0
1FFFF0
4FFFE4
E0000E
F0000F
F0000F
F0000F
F0000F
F0000F
F0000F
F0000F
F0000F
F0000F
F0000F
F0000F
F0000F
F0000F
F0000F
E0000E
4FFFE4
1FFFF0
1FFFF0
0FFFE0
ENDCHAR
STARTCHAR $0037
ENCODING 55
SWIDTH 516 0
DWIDTH 32 0
BBX 24 44 4 0
BITMAP
0FFFE0
1FFFF0
1FFFF0
0FFFE4
00000E
00000F
00000F
00000F
00000F
00000F
00000F
00000F
00000F
00000F
00000F
00000F
00000F
00000F
00000F
00000E
000004
000000
000000
000004
00000E
00000F
00000F
00000F
00000F
00000F
00000F
00000F
00000F
00000F
00000F
00000F
00000F
00000F
00000F
00000F
00000F
00000F
00000E
000004
ENDCHAR
STARTCHAR $0038
ENCODING 56
SWIDTH 512 0
DWIDTH 32 0
BBX 24 44 4 0
BITMAP
0FFFE0
1FFFF0
1FFFF0
4FFFE4
E0000E
F0000F
F0000F
F0000F
F0000F
F0000F
F0000F
F0000F
F0000F
F0000F
F0000F
F0000F
F0000F
F0000F
F0000F
E0000E
4FFFE4
1FFFF0
1FFFF0
4FFFE4
E0000E
F0000F
F0000F
F0000F
F0000F
F0000F
F0000F
F0000F
F0000F
F0000F
F0000F
F0000F
F0000F
F0000F
F0000F
E0000E
4FFFE4
1FFFF0
1FFFF0
0FFFE0
ENDCHAR
STARTCHAR $0039
ENCODING 57
SWIDTH 512 0
DWIDTH 32 0
BBX 24 44 4 0
BITMAP
0FFFE0
1FFFF0
1FFFF0
4FFFE4
E0000E
F0000F
F0000F
F0000F
F0000F
F0000F
F0000F
F0000F
F0000F
F0000F
F0000F
F0000F
F0000F
F0000F
F0000F
E0000E
4FFFE4
1FFFF0
1FFFF0
0FFFE4
00000E
00000F
00000F
00000F
00000F
00000F
00000F
00000F
00000F
00000F
00000F
00000F
00000F
00000F
00000F
00000E
0FFFE4
1FFFF0
1FFFF0
0FFFE0
ENDCHAR
STARTCHAR $003A
ENCODING 58
SWIDTH 192 0
DWIDTH 12 0
BBX 4 18 4 0
BITMAP
40
E0
F0
F0
E0
40
00
00
00
00
00
00
40
E0
F0
F0
E0
40
ENDCHAR
ENDFONT
